<svg width="98" height="32" viewBox="0 0 98 32" fill="none" xmlns="http://www.w3.org/2000/svg">
<path d="M4.99999 16C4.99969 14.0689 5.50773 12.1718 6.47306 10.4994C7.43839 8.82693 8.82698 7.43806 10.4992 6.47241C12.1715 5.50675 14.0685 4.99833 15.9996 4.99826C17.9306 4.99818 19.8277 5.50645 21.5 6.47198C21.7295 6.6025 22.0014 6.63692 22.2563 6.56773C22.5111 6.49854 22.7282 6.33136 22.8603 6.10267C22.9923 5.87399 23.0285 5.60236 22.961 5.34706C22.8935 5.09176 22.7278 4.87353 22.5 4.73998C20.0217 3.30914 17.1406 2.73602 14.3034 3.1095C11.4662 3.48298 8.83147 4.78218 6.80789 6.80563C4.78432 8.82907 3.48495 11.4637 3.11129 14.3008C2.73763 17.138 3.31056 20.0192 4.74124 22.4976C6.17192 24.976 8.38039 26.913 11.0241 28.0083C13.6679 29.1037 16.5992 29.2961 19.3634 28.5557C22.1277 27.8153 24.5704 26.1835 26.3127 23.9134C28.055 21.6432 28.9996 18.8617 29 16C29 15.7348 28.8946 15.4804 28.7071 15.2929C28.5196 15.1053 28.2652 15 28 15C27.7348 15 27.4804 15.1053 27.2929 15.2929C27.1053 15.4804 27 15.7348 27 16C27 18.9174 25.8411 21.7153 23.7782 23.7782C21.7153 25.8411 18.9174 27 16 27C13.0826 27 10.2847 25.8411 8.22181 23.7782C6.15891 21.7153 4.99999 18.9174 4.99999 16Z" fill="#9D1818"/>
<path d="M30.708 6.70798C30.801 6.61501 30.8747 6.50463 30.9251 6.38315C30.9754 6.26167 31.0013 6.13147 31.0013 5.99998C31.0013 5.86849 30.9754 5.73829 30.9251 5.61681C30.8747 5.49534 30.801 5.38496 30.708 5.29198C30.615 5.19901 30.5047 5.12525 30.3832 5.07493C30.2617 5.02462 30.1315 4.99872 30 4.99872C29.8685 4.99872 29.7383 5.02462 29.6168 5.07493C29.4954 5.12525 29.385 5.19901 29.292 5.29198L16 18.586L10.708 13.292C10.615 13.199 10.5047 13.1253 10.3832 13.0749C10.2617 13.0246 10.1315 12.9987 10 12.9987C9.86852 12.9987 9.73832 13.0246 9.61685 13.0749C9.49537 13.1253 9.38499 13.199 9.29201 13.292C9.19904 13.385 9.12528 13.4953 9.07497 13.6168C9.02465 13.7383 8.99875 13.8685 8.99875 14C8.99875 14.1315 9.02465 14.2617 9.07497 14.3831C9.12528 14.5046 9.19904 14.615 9.29201 14.708L15.292 20.708C15.3849 20.8011 15.4953 20.875 15.6167 20.9254C15.7382 20.9758 15.8685 21.0018 16 21.0018C16.1315 21.0018 16.2618 20.9758 16.3833 20.9254C16.5048 20.875 16.6151 20.8011 16.708 20.708L30.708 6.70798Z" fill="#9D1818"/>
<path d="M43.0568 18V9.27273H46.108C46.7159 9.27273 47.2173 9.37784 47.6122 9.58807C48.0071 9.79545 48.3011 10.0753 48.4943 10.4276C48.6875 10.777 48.7841 11.1648 48.7841 11.5909C48.7841 11.9659 48.7173 12.2756 48.5838 12.5199C48.4531 12.7642 48.2798 12.9574 48.0639 13.0994C47.8509 13.2415 47.6193 13.3466 47.3693 13.4148V13.5C47.6364 13.517 47.9048 13.6108 48.1747 13.7812C48.4446 13.9517 48.6705 14.196 48.8523 14.5142C49.0341 14.8324 49.125 15.2216 49.125 15.6818C49.125 16.1193 49.0256 16.5128 48.8267 16.8622C48.6278 17.2116 48.3139 17.4886 47.8849 17.6932C47.456 17.8977 46.8977 18 46.2102 18H43.0568ZM44.1136 17.0625H46.2102C46.9006 17.0625 47.3906 16.929 47.6804 16.6619C47.973 16.392 48.1193 16.0653 48.1193 15.6818C48.1193 15.3864 48.044 15.1136 47.8935 14.8636C47.7429 14.6108 47.5284 14.4091 47.25 14.2585C46.9716 14.1051 46.642 14.0284 46.2614 14.0284H44.1136V17.0625ZM44.1136 13.108H46.0739C46.392 13.108 46.679 13.0455 46.9347 12.9205C47.1932 12.7955 47.3977 12.6193 47.5483 12.392C47.7017 12.1648 47.7784 11.8977 47.7784 11.5909C47.7784 11.2074 47.6449 10.8821 47.3778 10.6151C47.1108 10.3452 46.6875 10.2102 46.108 10.2102H44.1136V13.108ZM53.3842 18.1364C52.7933 18.1364 52.2749 17.9957 51.8288 17.7145C51.3857 17.4332 51.0391 17.0398 50.7891 16.5341C50.5419 16.0284 50.4183 15.4375 50.4183 14.7614C50.4183 14.0795 50.5419 13.4844 50.7891 12.9759C51.0391 12.4673 51.3857 12.0724 51.8288 11.7912C52.2749 11.5099 52.7933 11.3693 53.3842 11.3693C53.9751 11.3693 54.4922 11.5099 54.9354 11.7912C55.3814 12.0724 55.728 12.4673 55.9751 12.9759C56.2251 13.4844 56.3501 14.0795 56.3501 14.7614C56.3501 15.4375 56.2251 16.0284 55.9751 16.5341C55.728 17.0398 55.3814 17.4332 54.9354 17.7145C54.4922 17.9957 53.9751 18.1364 53.3842 18.1364ZM53.3842 17.233C53.8331 17.233 54.2024 17.1179 54.4922 16.8878C54.782 16.6577 54.9964 16.3551 55.1357 15.9801C55.2749 15.6051 55.3445 15.1989 55.3445 14.7614C55.3445 14.3239 55.2749 13.9162 55.1357 13.5384C54.9964 13.1605 54.782 12.8551 54.4922 12.6222C54.2024 12.3892 53.8331 12.2727 53.3842 12.2727C52.9354 12.2727 52.5661 12.3892 52.2763 12.6222C51.9865 12.8551 51.772 13.1605 51.6328 13.5384C51.4936 13.9162 51.424 14.3239 51.424 14.7614C51.424 15.1989 51.4936 15.6051 51.6328 15.9801C51.772 16.3551 51.9865 16.6577 52.2763 16.8878C52.5661 17.1179 52.9354 17.233 53.3842 17.233ZM60.5444 18.1364C59.9535 18.1364 59.435 17.9957 58.989 17.7145C58.5458 17.4332 58.1992 17.0398 57.9492 16.5341C57.7021 16.0284 57.5785 15.4375 57.5785 14.7614C57.5785 14.0795 57.7021 13.4844 57.9492 12.9759C58.1992 12.4673 58.5458 12.0724 58.989 11.7912C59.435 11.5099 59.9535 11.3693 60.5444 11.3693C61.1353 11.3693 61.6523 11.5099 62.0955 11.7912C62.5415 12.0724 62.8881 12.4673 63.1353 12.9759C63.3853 13.4844 63.5103 14.0795 63.5103 14.7614C63.5103 15.4375 63.3853 16.0284 63.1353 16.5341C62.8881 17.0398 62.5415 17.4332 62.0955 17.7145C61.6523 17.9957 61.1353 18.1364 60.5444 18.1364ZM60.5444 17.233C60.9933 17.233 61.3626 17.1179 61.6523 16.8878C61.9421 16.6577 62.1566 16.3551 62.2958 15.9801C62.435 15.6051 62.5046 15.1989 62.5046 14.7614C62.5046 14.3239 62.435 13.9162 62.2958 13.5384C62.1566 13.1605 61.9421 12.8551 61.6523 12.6222C61.3626 12.3892 60.9933 12.2727 60.5444 12.2727C60.0955 12.2727 59.7262 12.3892 59.4364 12.6222C59.1467 12.8551 58.9322 13.1605 58.793 13.5384C58.6538 13.9162 58.5842 14.3239 58.5842 14.7614C58.5842 15.1989 58.6538 15.6051 58.793 15.9801C58.9322 16.3551 59.1467 16.6577 59.4364 16.8878C59.7262 17.1179 60.0955 17.233 60.5444 17.233ZM67.892 11.4545V12.3068H64.5V11.4545H67.892ZM65.4886 9.88636H66.4943V16.125C66.4943 16.4091 66.5355 16.6222 66.6179 16.7642C66.7031 16.9034 66.8111 16.9972 66.9418 17.0455C67.0753 17.0909 67.2159 17.1136 67.3636 17.1136C67.4744 17.1136 67.5653 17.108 67.6364 17.0966C67.7074 17.0824 67.7642 17.071 67.8068 17.0625L68.0114 17.9659C67.9432 17.9915 67.848 18.017 67.7259 18.0426C67.6037 18.071 67.4489 18.0852 67.2614 18.0852C66.9773 18.0852 66.6989 18.0241 66.4261 17.902C66.1563 17.7798 65.9318 17.5938 65.7528 17.3438C65.5767 17.0938 65.4886 16.7784 65.4886 16.3977V9.88636ZM73.924 12.9205L73.0206 13.1761C72.9638 13.0256 72.88 12.8793 72.7692 12.7372C72.6612 12.5923 72.5135 12.473 72.326 12.3793C72.1385 12.2855 71.8984 12.2386 71.6058 12.2386C71.2053 12.2386 70.8714 12.331 70.6044 12.5156C70.3402 12.6974 70.2081 12.929 70.2081 13.2102C70.2081 13.4602 70.299 13.6577 70.4808 13.8026C70.6626 13.9474 70.9467 14.0682 71.3331 14.1648L72.3047 14.4034C72.8899 14.5455 73.326 14.7628 73.6129 15.0554C73.8999 15.3452 74.0433 15.7187 74.0433 16.1761C74.0433 16.5511 73.9354 16.8864 73.7195 17.1818C73.5064 17.4773 73.2081 17.7102 72.8246 17.8807C72.4411 18.0511 71.995 18.1364 71.4865 18.1364C70.8189 18.1364 70.2663 17.9915 69.8288 17.7017C69.3913 17.4119 69.1143 16.9886 68.9979 16.4318L69.9524 16.1932C70.0433 16.5455 70.2152 16.8097 70.468 16.9858C70.7237 17.1619 71.0575 17.25 71.4695 17.25C71.9382 17.25 72.3104 17.1506 72.5859 16.9517C72.8643 16.75 73.0036 16.5085 73.0036 16.2273C73.0036 16 72.924 15.8097 72.7649 15.6562C72.6058 15.5 72.3615 15.3835 72.032 15.3068L70.9411 15.0511C70.3416 14.9091 69.9013 14.6889 69.62 14.3906C69.3416 14.0895 69.2024 13.7131 69.2024 13.2614C69.2024 12.892 69.3061 12.5653 69.5135 12.2812C69.7237 11.9972 70.0092 11.7741 70.37 11.6122C70.7337 11.4503 71.1456 11.3693 71.6058 11.3693C72.2536 11.3693 72.7621 11.5114 73.1314 11.7955C73.5036 12.0795 73.7678 12.4545 73.924 12.9205ZM78.4038 11.4545V12.3068H75.0117V11.4545H78.4038ZM76.0004 9.88636H77.006V16.125C77.006 16.4091 77.0472 16.6222 77.1296 16.7642C77.2148 16.9034 77.3228 16.9972 77.4535 17.0455C77.587 17.0909 77.7276 17.1136 77.8754 17.1136C77.9862 17.1136 78.0771 17.108 78.1481 17.0966C78.2191 17.0824 78.2759 17.071 78.3185 17.0625L78.5231 17.9659C78.4549 17.9915 78.3597 18.017 78.2376 18.0426C78.1154 18.071 77.9606 18.0852 77.7731 18.0852C77.489 18.0852 77.2106 18.0241 76.9379 17.902C76.668 17.7798 76.4435 17.5938 76.2646 17.3438C76.0884 17.0938 76.0004 16.7784 76.0004 16.3977V9.88636ZM79.9165 18V11.4545H80.8881V12.4432H80.9563C81.0756 12.1193 81.2915 11.8565 81.604 11.6548C81.9165 11.4531 82.2688 11.3523 82.6609 11.3523C82.7347 11.3523 82.8271 11.3537 82.9379 11.3565C83.0487 11.3594 83.1325 11.3636 83.1893 11.3693V12.392C83.1552 12.3835 83.0771 12.3707 82.9549 12.3537C82.8356 12.3338 82.7092 12.3239 82.5756 12.3239C82.2575 12.3239 81.9734 12.3906 81.7234 12.5241C81.4762 12.6548 81.2802 12.8366 81.1353 13.0696C80.9933 13.2997 80.9222 13.5625 80.9222 13.858V18H79.9165ZM86.3075 18.1534C85.8928 18.1534 85.5163 18.0753 85.1783 17.919C84.8402 17.7599 84.5717 17.5312 84.3729 17.233C84.174 16.9318 84.0746 16.5682 84.0746 16.142C84.0746 15.767 84.1484 15.4631 84.2962 15.2301C84.4439 14.9943 84.6413 14.8097 84.8885 14.6761C85.1357 14.5426 85.4084 14.4432 85.7067 14.3778C86.0078 14.3097 86.3104 14.2557 86.6143 14.2159C87.0121 14.1648 87.3345 14.1264 87.5817 14.1009C87.8317 14.0724 88.0135 14.0256 88.1271 13.9602C88.2436 13.8949 88.3018 13.7812 88.3018 13.6193V13.5852C88.3018 13.1648 88.1868 12.8381 87.9567 12.6051C87.7294 12.3722 87.3842 12.2557 86.9212 12.2557C86.4411 12.2557 86.0646 12.3608 85.7919 12.571C85.5192 12.7812 85.3274 13.0057 85.2166 13.2443L84.2621 12.9034C84.4325 12.5057 84.6598 12.196 84.9439 11.9744C85.2308 11.75 85.5433 11.5937 85.8814 11.5057C86.2223 11.4148 86.5575 11.3693 86.8871 11.3693C87.0973 11.3693 87.3388 11.3949 87.6115 11.446C87.8871 11.4943 88.1527 11.5952 88.4084 11.7486C88.6669 11.902 88.8814 12.1335 89.0518 12.4432C89.2223 12.7528 89.3075 13.1676 89.3075 13.6875V18H88.3018V17.1136H88.2507C88.1825 17.2557 88.0689 17.4077 87.9098 17.5696C87.7507 17.7315 87.5391 17.8693 87.2749 17.983C87.0107 18.0966 86.6882 18.1534 86.3075 18.1534ZM86.4609 17.25C86.8587 17.25 87.1939 17.1719 87.4666 17.0156C87.7422 16.8594 87.9496 16.6577 88.0888 16.4105C88.2308 16.1634 88.3018 15.9034 88.3018 15.6307V14.7102C88.2592 14.7614 88.1655 14.8082 88.0206 14.8509C87.8786 14.8906 87.7138 14.9261 87.5263 14.9574C87.3416 14.9858 87.1612 15.0114 86.9851 15.0341C86.8118 15.054 86.6712 15.071 86.5632 15.0852C86.3018 15.1193 86.0575 15.1747 85.8303 15.2514C85.6058 15.3253 85.424 15.4375 85.2848 15.5881C85.1484 15.7358 85.0803 15.9375 85.0803 16.1932C85.0803 16.5426 85.2095 16.8068 85.468 16.9858C85.7294 17.1619 86.0604 17.25 86.4609 17.25ZM91.1431 20.4545V11.4545H92.1147V12.4943H92.234C92.3079 12.3807 92.4102 12.2358 92.5408 12.0597C92.6744 11.8807 92.8647 11.7216 93.1119 11.5824C93.3619 11.4403 93.6999 11.3693 94.1261 11.3693C94.6772 11.3693 95.163 11.5071 95.5835 11.7827C96.0039 12.0582 96.332 12.4489 96.5678 12.9545C96.8036 13.4602 96.9215 14.0568 96.9215 14.7443C96.9215 15.4375 96.8036 16.0384 96.5678 16.5469C96.332 17.0526 96.0053 17.4446 95.5877 17.723C95.1701 17.9986 94.6886 18.1364 94.1431 18.1364C93.7227 18.1364 93.386 18.0668 93.1332 17.9276C92.8803 17.7855 92.6857 17.625 92.5494 17.446C92.413 17.2642 92.3079 17.1136 92.234 16.9943H92.1488V20.4545H91.1431ZM92.1317 14.7273C92.1317 15.2216 92.2042 15.6577 92.3491 16.0355C92.494 16.4105 92.7056 16.7045 92.984 16.9176C93.2624 17.1278 93.6033 17.233 94.0067 17.233C94.4272 17.233 94.7781 17.1222 95.0593 16.9006C95.3434 16.6761 95.5565 16.375 95.6985 15.9972C95.8434 15.6165 95.9158 15.1932 95.9158 14.7273C95.9158 14.267 95.8448 13.8523 95.7028 13.483C95.5636 13.1108 95.3519 12.8168 95.0678 12.6009C94.7866 12.3821 94.4329 12.2727 94.0067 12.2727C93.5977 12.2727 93.2539 12.3764 92.9755 12.5838C92.6971 12.7884 92.4869 13.0753 92.3448 13.4446C92.2028 13.8111 92.1317 14.2386 92.1317 14.7273Z" fill="white"/>
</svg>
