<svg width="46" height="44" viewBox="0 0 46 44" fill="none" xmlns="http://www.w3.org/2000/svg">
<g clip-path="url(#clip0_120_207)">
<path fill-rule="evenodd" clip-rule="evenodd" d="M45.5775 21.6556C45.5775 26.9406 43.5438 32.0433 39.8595 36.0022C36.1751 39.9612 31.0945 42.5031 25.5747 43.1492L30.9927 23.9349C31.3976 22.6215 31.4466 21.2322 31.1352 19.896C30.8176 18.5373 30.1378 17.2788 29.1611 16.2416H44.8597C45.3382 18.0103 45.5794 19.8294 45.5775 21.6556ZM4.6902e-06 21.6556C-0.000245449 27.3651 2.37214 32.8436 6.60099 36.8993C10.8298 40.9549 16.573 43.2595 22.5808 43.3116L26.6429 28.9077C25.9903 29.2205 25.2981 29.4525 24.5834 29.5979C22.9235 29.9369 21.195 29.7984 19.6183 29.2C18.4983 28.7747 17.4858 28.1289 16.6472 27.3051L1.80317 13.1989C0.611267 15.8743 -0.00195669 18.7503 4.6902e-06 21.6556ZM14.2544 21.2035L3.15625 10.6543C5.31739 7.1747 8.45946 4.33874 12.2275 2.46685C15.9955 0.594968 20.2393 -0.238243 24.4795 0.0613554C28.7196 0.360954 32.7871 1.78142 36.2223 4.16228C39.6576 6.54313 42.3238 9.78949 43.9197 13.5346H22.9768C21.7521 13.5084 20.5358 13.7327 19.4103 14.1924C17.9477 14.7869 16.6894 15.7587 15.7782 16.9979C14.8669 18.237 14.339 19.6939 14.2544 21.2035ZM22.7888 27.0696C24.2998 27.0696 25.7489 26.4992 26.8173 25.4839C27.8857 24.4686 28.486 23.0915 28.486 21.6556C28.486 20.2197 27.8857 18.8426 26.8173 17.8273C25.7489 16.812 24.2998 16.2416 22.7888 16.2416C21.2778 16.2416 19.8287 16.812 18.7602 17.8273C17.6918 18.8426 17.0916 20.2197 17.0916 21.6556C17.0916 23.0915 17.6918 24.4686 18.7602 25.4839C19.8287 26.4992 21.2778 27.0696 22.7888 27.0696Z" fill="#B60000"/>
</g>
<defs>
<clipPath id="clip0_120_207">
<rect width="45.5775" height="43.3121" fill="white"/>
</clipPath>
</defs>
</svg>
