<svg width="19" height="18" viewBox="0 0 19 18" fill="none" xmlns="http://www.w3.org/2000/svg">
<g clip-path="url(#clip0_110_19888)">
<path d="M2.5 0C1.90326 0 1.33097 0.237053 0.90901 0.65901C0.487053 1.08097 0.25 1.65326 0.25 2.25L0.25 16.6421C0.250024 16.7534 0.283067 16.8622 0.344947 16.9547C0.406827 17.0473 0.494763 17.1193 0.597624 17.1618C0.700486 17.2044 0.813649 17.2154 0.922791 17.1936C1.03193 17.1718 1.13215 17.1181 1.21075 17.0392L4.42037 13.8296C4.6313 13.6186 4.91741 13.5001 5.21575 13.5H16C16.5967 13.5 17.169 13.2629 17.591 12.841C18.0129 12.419 18.25 11.8467 18.25 11.25V2.25C18.25 1.65326 18.0129 1.08097 17.591 0.65901C17.169 0.237053 16.5967 0 16 0L2.5 0Z" fill="white"/>
</g>
<defs>
<clipPath id="clip0_110_19888">
<rect width="18" height="18" fill="white" transform="translate(0.25)"/>
</clipPath>
</defs>
</svg>
