<svg width="18" height="15" viewBox="0 0 18 15" fill="none" xmlns="http://www.w3.org/2000/svg">
<path d="M17.4559 2.00501C17.5285 1.92396 17.5861 1.82774 17.6255 1.72185C17.6648 1.61595 17.6851 1.50245 17.6852 1.38783C17.6853 1.27321 17.6651 1.15971 17.626 1.05382C17.5868 0.947925 17.5293 0.851706 17.4568 0.770657C17.3843 0.689608 17.2982 0.625317 17.2034 0.581454C17.1086 0.537591 17.0071 0.515015 16.9044 0.515015C16.8018 0.515015 16.7002 0.537591 16.6054 0.581454C16.5105 0.625317 16.4244 0.689608 16.3517 0.770657L5.97028 12.3593L1.8438 7.74439C1.7713 7.66334 1.68521 7.59905 1.59044 7.55519C1.49567 7.51133 1.39408 7.48875 1.29146 7.48875C1.18885 7.48875 1.08723 7.51133 0.992394 7.55519C0.897561 7.59905 0.811376 7.66334 0.738759 7.74439C0.666142 7.82544 0.608515 7.92166 0.56917 8.02756C0.529825 8.13345 0.509531 8.24695 0.509447 8.36157C0.509364 8.47619 0.529492 8.58969 0.568683 8.69558C0.607874 8.80148 0.66536 8.8977 0.737859 8.97874L5.41641 14.209C5.48885 14.2902 5.57492 14.3546 5.6697 14.3986C5.76447 14.4425 5.8661 14.4651 5.96875 14.4651C6.0714 14.4651 6.17305 14.4425 6.2679 14.3986C6.36274 14.3546 6.4489 14.2902 6.52145 14.209L17.4559 2.00501Z" fill="#9D1818"/>
</svg>
