<svg width="77" height="32" viewBox="0 0 77 32" fill="none" xmlns="http://www.w3.org/2000/svg">
<path d="M5 16C4.9997 14.0689 5.50775 12.1718 6.47308 10.4994C7.43841 8.82693 8.827 7.43806 10.4993 6.47241C12.1715 5.50675 14.0685 4.99833 15.9996 4.99826C17.9306 4.99818 19.8277 5.50645 21.5 6.47198C21.7296 6.6025 22.0014 6.63692 22.2563 6.56773C22.5111 6.49854 22.7282 6.33136 22.8603 6.10267C22.9923 5.87399 23.0285 5.60236 22.961 5.34706C22.8935 5.09176 22.7278 4.87353 22.5 4.73998C20.0217 3.30914 17.1406 2.73602 14.3034 3.1095C11.4662 3.48298 8.83148 4.78218 6.80791 6.80563C4.78434 8.82907 3.48496 11.4637 3.1113 14.3008C2.73764 17.138 3.31058 20.0192 4.74126 22.4976C6.17193 24.976 8.3804 26.913 11.0242 28.0083C13.6679 29.1037 16.5992 29.2961 19.3634 28.5557C22.1277 27.8153 24.5704 26.1835 26.3127 23.9134C28.055 21.6432 28.9996 18.8617 29 16C29 15.7348 28.8946 15.4804 28.7071 15.2929C28.5196 15.1053 28.2652 15 28 15C27.7348 15 27.4804 15.1053 27.2929 15.2929C27.1054 15.4804 27 15.7348 27 16C27 18.9174 25.8411 21.7153 23.7782 23.7782C21.7153 25.8411 18.9174 27 16 27C13.0826 27 10.2847 25.8411 8.22183 23.7782C6.15893 21.7153 5 18.9174 5 16Z" fill="#9D1818"/>
<path d="M30.708 6.70798C30.801 6.61501 30.8747 6.50463 30.925 6.38315C30.9754 6.26167 31.0013 6.13147 31.0013 5.99998C31.0013 5.86849 30.9754 5.73829 30.925 5.61681C30.8747 5.49534 30.801 5.38496 30.708 5.29198C30.615 5.19901 30.5046 5.12525 30.3832 5.07493C30.2617 5.02462 30.1315 4.99872 30 4.99872C29.8685 4.99872 29.7383 5.02462 29.6168 5.07493C29.4953 5.12525 29.385 5.19901 29.292 5.29198L16 18.586L10.708 13.292C10.615 13.199 10.5046 13.1253 10.3832 13.0749C10.2617 13.0246 10.1315 12.9987 10 12.9987C9.86851 12.9987 9.73831 13.0246 9.61683 13.0749C9.49535 13.1253 9.38497 13.199 9.292 13.292C9.19902 13.385 9.12527 13.4953 9.07495 13.6168C9.02463 13.7383 8.99873 13.8685 8.99873 14C8.99873 14.1315 9.02463 14.2617 9.07495 14.3831C9.12527 14.5046 9.19902 14.615 9.292 14.708L15.292 20.708C15.3849 20.8011 15.4952 20.875 15.6167 20.9254C15.7382 20.9758 15.8685 21.0018 16 21.0018C16.1315 21.0018 16.2618 20.9758 16.3833 20.9254C16.5048 20.875 16.6151 20.8011 16.708 20.708L30.708 6.70798Z" fill="#9D1818"/>
<path d="M43.0568 18V9.27273H48.2898V10.2102H44.1136V13.1591H47.8977V14.0966H44.1136V18H43.0568ZM49.9634 18V11.4545H50.9691V18H49.9634ZM50.4748 10.3636C50.2788 10.3636 50.1097 10.2969 49.9677 10.1634C49.8285 10.0298 49.7589 9.86932 49.7589 9.68182C49.7589 9.49432 49.8285 9.33381 49.9677 9.20028C50.1097 9.06676 50.2788 9 50.4748 9C50.6708 9 50.8384 9.06676 50.9776 9.20028C51.1197 9.33381 51.1907 9.49432 51.1907 9.68182C51.1907 9.86932 51.1197 10.0298 50.9776 10.1634C50.8384 10.2969 50.6708 10.3636 50.4748 10.3636ZM55.4531 20.5909C54.9673 20.5909 54.5497 20.5284 54.2003 20.4034C53.8509 20.2812 53.5597 20.1193 53.3267 19.9176C53.0966 19.7188 52.9134 19.5057 52.777 19.2784L53.5781 18.7159C53.669 18.8352 53.7841 18.9716 53.9233 19.125C54.0625 19.2812 54.2528 19.4162 54.4943 19.5298C54.7386 19.6463 55.0582 19.7045 55.4531 19.7045C55.9815 19.7045 56.4176 19.5767 56.7614 19.321C57.1051 19.0653 57.277 18.6648 57.277 18.1193V16.7898H57.1918C57.1179 16.9091 57.0128 17.0568 56.8764 17.233C56.7429 17.4062 56.5497 17.5611 56.2969 17.6974C56.0469 17.831 55.7088 17.8977 55.2827 17.8977C54.7543 17.8977 54.2798 17.7727 53.8594 17.5227C53.4418 17.2727 53.1108 16.9091 52.8665 16.4318C52.625 15.9545 52.5043 15.375 52.5043 14.6932C52.5043 14.0227 52.6222 13.4389 52.858 12.9418C53.0938 12.4418 53.4219 12.0554 53.8423 11.7827C54.2628 11.5071 54.7486 11.3693 55.2997 11.3693C55.7259 11.3693 56.0639 11.4403 56.3139 11.5824C56.5668 11.7216 56.7599 11.8807 56.8935 12.0597C57.0298 12.2358 57.1349 12.3807 57.2088 12.4943H57.3111V11.4545H58.2827V18.1875C58.2827 18.75 58.1548 19.2074 57.8991 19.5597C57.6463 19.9148 57.3054 20.1747 56.8764 20.3395C56.4503 20.5071 55.9759 20.5909 55.4531 20.5909ZM55.419 16.9943C55.8224 16.9943 56.1634 16.902 56.4418 16.7173C56.7202 16.5327 56.9318 16.267 57.0767 15.9205C57.2216 15.5739 57.294 15.1591 57.294 14.6761C57.294 14.2045 57.223 13.7884 57.081 13.4276C56.9389 13.0668 56.7287 12.7841 56.4503 12.5795C56.1719 12.375 55.8281 12.2727 55.419 12.2727C54.9929 12.2727 54.6378 12.3807 54.3537 12.5966C54.0724 12.8125 53.8608 13.1023 53.7188 13.4659C53.5795 13.8295 53.5099 14.233 53.5099 14.6761C53.5099 15.1307 53.581 15.5327 53.723 15.8821C53.8679 16.2287 54.081 16.5014 54.3622 16.7003C54.6463 16.8963 54.9986 16.9943 55.419 16.9943ZM60.1236 18V11.4545H61.0952V12.4773H61.1804C61.3168 12.1278 61.5369 11.8565 61.8409 11.6634C62.1449 11.4673 62.5099 11.3693 62.9361 11.3693C63.3679 11.3693 63.7273 11.4673 64.0142 11.6634C64.304 11.8565 64.5298 12.1278 64.6918 12.4773H64.7599C64.9276 12.1392 65.179 11.8707 65.5142 11.6719C65.8494 11.4702 66.2514 11.3693 66.7202 11.3693C67.3054 11.3693 67.7841 11.5526 68.1562 11.919C68.5284 12.2827 68.7145 12.8494 68.7145 13.6193V18H67.7088V13.6193C67.7088 13.1364 67.5767 12.7912 67.3125 12.5838C67.0483 12.3764 66.7372 12.2727 66.3793 12.2727C65.919 12.2727 65.5625 12.4119 65.3097 12.6903C65.0568 12.9659 64.9304 13.3153 64.9304 13.7386V18H63.9077V13.517C63.9077 13.1449 63.7869 12.8452 63.5455 12.6179C63.304 12.3878 62.9929 12.2727 62.6122 12.2727C62.3509 12.2727 62.1065 12.3423 61.8793 12.4815C61.6548 12.6207 61.473 12.8139 61.3338 13.0611C61.1974 13.3054 61.1293 13.5881 61.1293 13.9091V18H60.1236ZM72.4794 18.1534C72.0646 18.1534 71.6882 18.0753 71.3501 17.919C71.0121 17.7599 70.7436 17.5312 70.5447 17.233C70.3459 16.9318 70.2464 16.5682 70.2464 16.142C70.2464 15.767 70.3203 15.4631 70.468 15.2301C70.6158 14.9943 70.8132 14.8097 71.0604 14.6761C71.3075 14.5426 71.5803 14.4432 71.8786 14.3778C72.1797 14.3097 72.4822 14.2557 72.7862 14.2159C73.1839 14.1648 73.5064 14.1264 73.7536 14.1009C74.0036 14.0724 74.1854 14.0256 74.299 13.9602C74.4155 13.8949 74.4737 13.7812 74.4737 13.6193V13.5852C74.4737 13.1648 74.3587 12.8381 74.1286 12.6051C73.9013 12.3722 73.5561 12.2557 73.093 12.2557C72.6129 12.2557 72.2365 12.3608 71.9638 12.571C71.6911 12.7812 71.4993 13.0057 71.3885 13.2443L70.4339 12.9034C70.6044 12.5057 70.8317 12.196 71.1158 11.9744C71.4027 11.75 71.7152 11.5937 72.0533 11.5057C72.3942 11.4148 72.7294 11.3693 73.0589 11.3693C73.2692 11.3693 73.5107 11.3949 73.7834 11.446C74.0589 11.4943 74.3246 11.5952 74.5803 11.7486C74.8388 11.902 75.0533 12.1335 75.2237 12.4432C75.3942 12.7528 75.4794 13.1676 75.4794 13.6875V18H74.4737V17.1136H74.4226C74.3544 17.2557 74.2408 17.4077 74.0817 17.5696C73.9226 17.7315 73.7109 17.8693 73.4467 17.983C73.1825 18.0966 72.8601 18.1534 72.4794 18.1534ZM72.6328 17.25C73.0305 17.25 73.3658 17.1719 73.6385 17.0156C73.9141 16.8594 74.1214 16.6577 74.2607 16.4105C74.4027 16.1634 74.4737 15.9034 74.4737 15.6307V14.7102C74.4311 14.7614 74.3374 14.8082 74.1925 14.8509C74.0504 14.8906 73.8857 14.9261 73.6982 14.9574C73.5135 14.9858 73.3331 15.0114 73.157 15.0341C72.9837 15.054 72.843 15.071 72.7351 15.0852C72.4737 15.1193 72.2294 15.1747 72.0021 15.2514C71.7777 15.3253 71.5959 15.4375 71.4567 15.5881C71.3203 15.7358 71.2521 15.9375 71.2521 16.1932C71.2521 16.5426 71.3814 16.8068 71.6399 16.9858C71.9013 17.1619 72.2322 17.25 72.6328 17.25Z" fill="white"/>
</svg>
