<svg width="1200" height="438" viewBox="0 0 1200 438" fill="none" xmlns="http://www.w3.org/2000/svg">
<path fill-rule="evenodd" clip-rule="evenodd" d="M0 277.681L22.0183 300.821C44.0367 323.961 89.0742 370.241 133.111 401.095C178.148 431.948 222.185 447.375 267.223 431.948C311.259 416.521 356.297 370.241 400.333 331.674C444.37 293.108 489.408 262.254 533.444 277.681C578.482 293.108 622.518 354.814 667.556 347.101C711.593 339.388 756.63 262.254 800.667 223.687C844.703 185.121 889.741 185.121 933.778 200.547C978.815 215.974 1022.85 246.827 1067.89 269.968C1111.93 293.108 1156.96 308.534 1178.98 316.248L1201 323.961V0H1178.98C1156.96 0 1111.93 0 1067.89 0C1022.85 0 978.815 0 933.778 0C889.741 0 844.703 0 800.667 0C756.63 0 711.593 0 667.556 0C622.518 0 578.482 0 533.444 0C489.408 0 444.37 0 400.333 0C356.297 0 311.259 0 267.223 0C222.185 0 178.148 0 133.111 0C89.0742 0 44.0367 0 22.0183 0H0V277.681Z" fill="#A00000" fill-opacity="0.9"/>
</svg>
