<svg width="102" height="78" viewBox="0 0 102 78" fill="none" xmlns="http://www.w3.org/2000/svg">
<g clip-path="url(#clip0_202_1554)">
<path d="M16.9587 76.895C16.9587 77.003 17.0193 77.0899 17.0948 77.0899H84.9496C85.0257 77.0899 85.0857 77.0032 85.0857 76.895C85.0857 76.7869 85.0251 76.7002 84.9496 76.7002H17.0948C17.0193 76.7003 16.9587 76.787 16.9587 76.895Z" fill="#CCCCCC"/>
<path d="M41.5096 76.2529H39.0869V76.6705H41.5096V76.2529Z" fill="#B6B3C5"/>
<path d="M62.957 76.3223H60.5343V76.7398H62.957V76.3223Z" fill="#B6B3C5"/>
<path d="M54.4958 57.6699C54.361 58.467 53.9407 59.1915 53.3099 59.7141C52.6791 60.2368 51.8788 60.5236 51.0517 60.5236C50.2245 60.5236 49.4242 60.2368 48.7935 59.7141C48.1627 59.1915 47.7424 58.467 47.6075 57.6699H38.7959V76.3222H63.3078V57.6699H54.4958Z" fill="#D6D6E3"/>
<path d="M63.3787 74.8447H38.8673V75.494H63.3787V74.8447Z" fill="#090814"/>
<path d="M100.347 58.1571H1.7565C1.39421 58.1567 1.04687 58.0159 0.790692 57.7657C0.534515 57.5155 0.390417 57.1762 0.390015 56.8223L0.390015 1.86463C0.390384 1.51074 0.534466 1.17145 0.790648 0.921195C1.04683 0.670944 1.39418 0.530179 1.7565 0.529785H100.347C100.709 0.530211 101.056 0.67097 101.313 0.921187C101.569 1.1714 101.713 1.51065 101.713 1.86451V56.8223C101.713 57.1762 101.569 57.5154 101.313 57.7657C101.056 58.0159 100.709 58.1566 100.347 58.1571Z" fill="#090814"/>
<path d="M2.86884 2.75732H99.347V55.9307H2.86884V2.75732Z" fill="#090814"/>
<path d="M27.0197 7.09473H36.1498C36.2843 7.09473 36.4134 7.14692 36.5085 7.23984C36.6036 7.33275 36.657 7.45877 36.657 7.59017V8.58105C36.657 8.71245 36.6036 8.83847 36.5085 8.93139C36.4134 9.0243 36.2843 9.0765 36.1498 9.0765H27.0197C26.8851 9.0765 26.7561 9.0243 26.661 8.93139C26.5659 8.83847 26.5124 8.71245 26.5124 8.58105V7.59017C26.5124 7.45877 26.5659 7.33275 26.661 7.23984C26.7561 7.14692 26.8851 7.09473 27.0197 7.09473Z" fill="#F2F2F2"/>
<path d="M45.7872 11.0581H27.5269C26.9666 11.0581 26.5124 11.5017 26.5124 12.049V20.967C26.5124 21.5142 26.9666 21.9578 27.5269 21.9578H45.7872C46.3475 21.9578 46.8017 21.5142 46.8017 20.967V12.049C46.8017 11.5017 46.3475 11.0581 45.7872 11.0581Z" fill="#9A0000"/>
<path d="M69.1198 11.0581H50.8595C50.2992 11.0581 49.845 11.5017 49.845 12.049V20.967C49.845 21.5142 50.2992 21.9578 50.8595 21.9578H69.1198C69.6801 21.9578 70.1343 21.5142 70.1343 20.967V12.049C70.1343 11.5017 69.6801 11.0581 69.1198 11.0581Z" fill="#9A0000"/>
<path d="M91.438 33.8486H28.5413C27.4208 33.8486 26.5124 34.7359 26.5124 35.8304V39.7939C26.5124 40.8884 27.4208 41.7757 28.5413 41.7757H91.438C92.5585 41.7757 93.4669 40.8884 93.4669 39.7939V35.8304C93.4669 34.7359 92.5585 33.8486 91.438 33.8486Z" fill="#3F3D56"/>
<path d="M91.438 23.9395H28.5413C27.4208 23.9395 26.5124 24.8267 26.5124 25.9212V29.8848C26.5124 30.9793 27.4208 31.8665 28.5413 31.8665H91.438C92.5585 31.8665 93.4669 30.9793 93.4669 29.8848V25.9212C93.4669 24.8267 92.5585 23.9395 91.438 23.9395Z" fill="#3F3D56"/>
<path d="M21.8205 7.09473H9.13974C8.8596 7.09473 8.63251 7.31654 8.63251 7.59017V51.1891C8.63251 51.4627 8.8596 51.6846 9.13974 51.6846H21.8205C22.1007 51.6846 22.3277 51.4627 22.3277 51.1891V7.59017C22.3277 7.31654 22.1007 7.09473 21.8205 7.09473Z" fill="#232139"/>
<path d="M14.212 8.95264H16.7482C16.95 8.95264 17.1435 9.03093 17.2862 9.1703C17.4289 9.30967 17.5091 9.4987 17.5091 9.6958V10.1912C17.5091 10.3883 17.4289 10.5774 17.2862 10.7167C17.1435 10.8561 16.95 10.9344 16.7482 10.9344H14.212C14.0103 10.9344 13.8167 10.8561 13.674 10.7167C13.5314 10.5774 13.4512 10.3883 13.4512 10.1912V9.6958C13.4512 9.4987 13.5314 9.30967 13.674 9.1703C13.8167 9.03093 14.0103 8.95264 14.212 8.95264Z" fill="#9A0000"/>
<path d="M10.9151 47.7207H20.0452C20.1798 47.7207 20.3088 47.7729 20.4039 47.8658C20.499 47.9587 20.5525 48.0847 20.5525 48.2161V49.207C20.5525 49.3384 20.499 49.4644 20.4039 49.5574C20.3088 49.6503 20.1798 49.7025 20.0452 49.7025H10.9151C10.7805 49.7025 10.6515 49.6503 10.5564 49.5574C10.4613 49.4644 10.4078 49.3384 10.4078 49.207V48.2161C10.4078 48.0847 10.4613 47.9587 10.5564 47.8658C10.6515 47.7729 10.7805 47.7207 10.9151 47.7207Z" fill="#9A0000"/>
<path d="M19.538 12.916H11.4223C10.862 12.916 10.4078 13.3596 10.4078 13.9069C10.4078 14.4542 10.862 14.8978 11.4223 14.8978H19.538C20.0983 14.8978 20.5525 14.4542 20.5525 13.9069C20.5525 13.3596 20.0983 12.916 19.538 12.916Z" fill="white"/>
<path d="M19.538 15.8887H11.4223C10.862 15.8887 10.4078 16.3323 10.4078 16.8796C10.4078 17.4268 10.862 17.8704 11.4223 17.8704H19.538C20.0983 17.8704 20.5525 17.4268 20.5525 16.8796C20.5525 16.3323 20.0983 15.8887 19.538 15.8887Z" fill="#3F3D56"/>
<path d="M19.538 18.8613H11.4223C10.862 18.8613 10.4078 19.305 10.4078 19.8522C10.4078 20.3995 10.862 20.8431 11.4223 20.8431H19.538C20.0983 20.8431 20.5525 20.3995 20.5525 19.8522C20.5525 19.305 20.0983 18.8613 19.538 18.8613Z" fill="#3F3D56"/>
<path d="M19.538 21.834H11.4223C10.862 21.834 10.4078 22.2776 10.4078 22.8249C10.4078 23.3721 10.862 23.8158 11.4223 23.8158H19.538C20.0983 23.8158 20.5525 23.3721 20.5525 22.8249C20.5525 22.2776 20.0983 21.834 19.538 21.834Z" fill="#3F3D56"/>
<path d="M19.538 24.8066H11.4223C10.862 24.8066 10.4078 25.2503 10.4078 25.7975C10.4078 26.3448 10.862 26.7884 11.4223 26.7884H19.538C20.0983 26.7884 20.5525 26.3448 20.5525 25.7975C20.5525 25.2503 20.0983 24.8066 19.538 24.8066Z" fill="#3F3D56"/>
<path d="M83.8295 7.09473H92.9597C93.0942 7.09473 93.2232 7.14692 93.3184 7.23984C93.4135 7.33275 93.4669 7.45877 93.4669 7.59017V8.58105C93.4669 8.71245 93.4135 8.83847 93.3184 8.93139C93.2232 9.0243 93.0942 9.0765 92.9597 9.0765H83.8295C83.695 9.0765 83.566 9.0243 83.4709 8.93139C83.3757 8.83847 83.3223 8.71245 83.3223 8.58105V7.59017C83.3223 7.45877 83.3757 7.33275 83.4709 7.23984C83.566 7.14692 83.695 7.09473 83.8295 7.09473Z" fill="#9A0000"/>
<path d="M92.4525 11.0581H74.1921C73.6319 11.0581 73.1777 11.5017 73.1777 12.049V20.967C73.1777 21.5142 73.6319 21.9578 74.1921 21.9578H92.4525C93.0127 21.9578 93.4669 21.5142 93.4669 20.967V12.049C93.4669 11.5017 93.0127 11.0581 92.4525 11.0581Z" fill="#9A0000"/>
<g opacity="0.499">
<path d="M92.8521 45.5052C90.8666 44.6163 87.549 44.4492 84.6984 44.7186C81.8477 44.988 79.2877 45.6186 76.6368 46.1298C73.9859 46.641 71.0426 47.0441 68.1708 46.8155C65.3976 46.5946 63.1068 45.8226 60.7284 45.1929C58.35 44.5632 55.4522 44.0432 52.7629 44.4002C49.434 44.8416 47.9002 46.3844 45.5095 47.44C43.0074 48.5445 39.448 49.1308 35.7969 49.0396C32.1457 48.9485 28.7822 48.1895 26.6188 46.9686V51.6854H92.6776L92.8521 45.5052Z" fill="#9A0000"/>
</g>
<path d="M26.556 47.1016C29.3942 48.745 34.3009 49.5889 38.9942 49.1934C41.3568 48.994 43.5386 48.5109 45.2853 47.8002C46.8614 47.1538 47.9452 46.33 49.3422 45.6186C50.0855 45.2317 50.8725 44.931 51.6873 44.7225C52.8141 44.4552 53.9736 44.3428 55.1321 44.3887C57.8179 44.4723 60.1248 45.1594 62.2897 45.7825C64.3936 46.3881 66.6075 46.9768 69.2021 47.0516C71.9319 47.1302 74.5861 46.7013 77.0099 46.2077C79.4905 45.7026 81.9088 45.1014 84.6072 44.8329C86.8057 44.6137 89.3066 44.6552 91.2797 45.1654C91.721 45.2772 92.1511 45.427 92.5652 45.6133C92.7664 45.7051 93.088 45.5667 92.8873 45.4752C91.3628 44.7801 89.1192 44.5019 86.9411 44.5147C84.3996 44.5295 82.0148 44.9472 79.7578 45.4133C77.2493 45.9313 74.7858 46.5265 72.029 46.7668C70.6483 46.896 69.2583 46.8978 67.8772 46.7722C66.6875 46.6451 65.5097 46.4273 64.3547 46.1206C62.1392 45.553 60.1346 44.8346 57.6909 44.4443C55.445 44.0851 52.9899 44.0798 50.9764 44.6873C49.2431 45.2104 48.0887 46.0009 46.8439 46.7186C46.145 47.1324 45.4124 47.4892 44.6535 47.7855C43.6386 48.1618 42.5916 48.4499 41.5248 48.6465C39.1557 49.087 36.736 49.2071 34.3334 49.0036C31.9817 48.799 29.8207 48.3046 28.1151 47.581C27.7148 47.412 27.3256 47.219 26.9496 47.0031C26.777 46.9032 26.3815 47.0005 26.5565 47.1022L26.556 47.1016Z" fill="#9A0000"/>
<path d="M54.5979 44.9949C54.966 44.9949 55.2644 44.7034 55.2644 44.3439C55.2644 43.9843 54.966 43.6929 54.5979 43.6929C54.2298 43.6929 53.9314 43.9843 53.9314 44.3439C53.9314 44.7034 54.2298 44.9949 54.5979 44.9949Z" fill="#9A0000"/>
<path d="M90.1714 45.1902C90.5395 45.1902 90.8379 44.8987 90.8379 44.5392C90.8379 44.1797 90.5395 43.8882 90.1714 43.8882C89.8033 43.8882 89.5049 44.1797 89.5049 44.5392C89.5049 44.8987 89.8033 45.1902 90.1714 45.1902Z" fill="#9A0000"/>
<path d="M31.3677 49.2542C31.7358 49.2542 32.0342 48.9627 32.0342 48.6032C32.0342 48.2436 31.7358 47.9521 31.3677 47.9521C30.9996 47.9521 30.7012 48.2436 30.7012 48.6032C30.7012 48.9627 30.9996 49.2542 31.3677 49.2542Z" fill="#9A0000"/>
</g>
<defs>
<clipPath id="clip0_202_1554">
<rect width="101.323" height="76.56" fill="white" transform="translate(0.390015 0.529785)"/>
</clipPath>
</defs>
</svg>
