<svg width="315" height="244" viewBox="0 0 315 244" fill="none" xmlns="http://www.w3.org/2000/svg">
<g clip-path="url(#clip0_191_8)">
<path d="M30.2627 243.379C30.2497 243.53 30.2964 243.679 30.3928 243.795C30.4892 243.912 30.6275 243.985 30.7777 244H287.495C287.641 243.974 287.773 243.897 287.868 243.784C287.963 243.67 288.015 243.527 288.015 243.379C288.015 243.231 287.963 243.088 287.868 242.974C287.773 242.861 287.641 242.784 287.495 242.758H30.7777C30.6275 242.773 30.4892 242.846 30.3928 242.963C30.2964 243.079 30.2497 243.228 30.2627 243.379Z" fill="#D6D6E3"/>
<path d="M168.207 182.108C167.834 184.685 166.547 187.041 164.58 188.745C162.614 190.449 160.1 191.387 157.5 191.387C154.9 191.387 152.386 190.449 150.42 188.745C148.453 187.041 147.166 184.685 146.793 182.108H119.399V242.759H195.601V182.108H168.207Z" fill="#D6D6E3"/>
<path d="M310.752 183.661H4.24815C3.12182 183.659 2.04196 183.211 1.24552 182.413C0.449087 181.616 0.0011466 180.535 0 179.407L0 4.25376C0.0011466 3.12594 0.449087 2.04464 1.24552 1.24715C2.04196 0.449666 3.12182 0.00113286 4.24815 -1.52588e-05H310.752C311.878 0.00144588 312.958 0.450117 313.754 1.24757C314.55 2.04503 314.998 3.12615 314.999 4.25376V179.407C314.998 180.535 314.55 181.616 313.753 182.413C312.957 183.211 311.877 183.659 310.751 183.661H310.752Z" fill="#090814"/>
<path d="M307.846 7.09802H7.90961V176.563H307.846V7.09802Z" fill="white"/>
<path d="M16.0228 120.632L22.3377 120.273L21.8731 126.411H15.4471L16.0228 120.632Z" fill="#ED9DA0"/>
<path d="M53.3254 121.823C55.0378 120.406 57.1561 120.143 58.0562 121.234C58.9564 122.326 58.298 124.359 56.5848 125.776C55.9082 126.351 55.1038 126.756 54.2389 126.957L46.9073 132.868L44.2101 129.364L51.724 123.908C52.0837 123.095 52.6331 122.38 53.3254 121.823Z" fill="#ED9DA0"/>
<path d="M10.9501 135.162C10.9466 134.9 10.9501 132.62 12.635 131.179C14.5718 129.523 17.3048 130.194 18.2632 130.43C20.4776 130.973 20.6592 131.925 22.7386 132.902C26.6292 134.73 21.7542 133.794 24.0694 133.208C24.8707 133.005 36.3985 132.204 39.2681 130.436C44.8491 126.996 48.6515 124.911 48.6515 124.911L51.1388 129.887C48.672 133.179 45.7596 136.111 42.4854 138.6C37.2962 142.403 34.7014 144.305 30.7584 145.039C30.419 145.102 22.0676 146.53 15.3412 141.498C13.8056 140.35 10.9958 138.247 10.9521 135.162L10.9501 135.162Z" fill="black"/>
<path d="M18.6613 123.343C23.4439 123.343 27.321 119.461 27.321 114.672C27.321 109.883 23.4439 106.001 18.6613 106.001C13.8787 106.001 10.0016 109.883 10.0016 114.672C10.0016 119.461 13.8787 123.343 18.6613 123.343Z" fill="#ED9DA0"/>
<path d="M86.4798 172.085L77.5618 162.945L72.9581 167.755L79.6026 176.519L86.1931 177.274L86.4798 172.085Z" fill="#ED9DA0"/>
<path d="M35.5567 154.944C36.0784 154.987 37.7361 155.32 39.3201 154.447C40.0651 154.021 40.6917 153.415 41.1432 152.684C43.4663 149.19 52.3855 143.74 60.39 143.405C62.2012 143.329 63.3959 143.539 64.4802 144.105C66.0178 144.908 66.6317 146.058 68.5831 148.751C69.6506 150.224 70.8314 151.612 71.9119 153.076C78.2362 161.646 80.6338 162.319 80.3889 165.066C80.1168 168.115 76.8337 171.007 74.6516 170.673C73.7577 170.536 73.4116 169.914 72.2178 168.654C68.717 164.96 67.2684 165.643 64.776 162.814C61.8658 159.511 62.2469 156.773 60.7286 156.667C59.3206 156.569 58.7205 158.905 55.7166 162.008C54.3412 163.428 53.362 164.08 50.3777 166.153C38.7582 174.225 38.5728 174.794 36.228 175.436C35.2019 175.717 27.9199 177.717 25.3259 174.535C21.2663 169.557 30.8565 154.553 35.5567 154.944Z" fill="#090814"/>
<path d="M83.7531 174.151C84.409 173.856 85.1761 173.511 85.4225 172.718C85.5059 172.439 85.5244 172.145 85.4766 171.858C85.4288 171.571 85.316 171.299 85.1469 171.062C84.7488 170.535 84.1594 170.465 84.183 170.372C84.2193 170.23 85.6131 170.285 87.1428 170.827C88.3228 171.276 89.4234 171.911 90.4031 172.708C91.7359 173.75 91.5568 173.959 92.3927 174.561C94.9584 176.406 97.3649 174.952 98.7533 176.682C99.0209 177.01 99.2089 177.396 99.3024 177.809C99.3959 178.222 99.3925 178.651 99.2923 179.063C98.8395 180.601 96.6373 181.131 95.4336 181.405C92.5352 182.063 90.3413 181.526 88.05 181.139C80.2589 179.825 75.8832 181.021 75.2957 179.214C75.1847 178.872 75.365 178.901 75.9651 176.391C76.5581 173.914 76.5384 173.234 77.0436 173.035C77.8035 172.737 78.3142 174.095 80.2286 174.56C81.4151 174.822 82.6552 174.678 83.7503 174.151L83.7531 174.151Z" fill="#090814"/>
<path d="M70.6247 201.989L68.3717 189.411L61.8654 190.801L62.4482 201.789L67.4795 206.119L70.6247 201.989Z" fill="#ED9DA0"/>
<path d="M38.1011 159.172C38.5082 159.501 39.6934 160.71 41.494 160.877C42.3495 160.943 43.2079 160.794 43.9912 160.444C47.8735 158.859 58.3095 159.365 65.1205 163.588C66.6628 164.544 67.5322 165.389 68.113 166.466C68.9352 167.994 68.7985 169.291 68.9029 172.616C68.96 174.435 69.1588 176.248 69.2316 178.067C69.6589 188.714 71.2654 190.619 69.5218 192.754C67.5873 195.124 63.2486 195.672 61.6303 194.167C60.9677 193.552 61.0303 192.842 60.7487 191.129C59.9219 186.104 58.3421 185.854 57.8661 182.112C57.3105 177.743 59.1615 175.691 57.9645 174.75C56.8546 173.877 55.0508 175.474 50.8215 176.352C48.8871 176.754 47.7109 176.742 44.0798 176.779C29.9383 176.925 29.4666 177.292 27.1655 176.503C26.1587 176.16 19.0122 173.719 18.6495 169.628C18.0825 163.226 34.4318 156.204 38.1007 159.17L38.1011 159.172Z" fill="#090814"/>
<path d="M67.2102 202.165C67.9189 202.289 68.7458 202.436 69.3951 201.918C69.6203 201.734 69.8006 201.502 69.9221 201.238C70.0437 200.973 70.1033 200.685 70.0963 200.394C70.0625 199.734 69.614 199.345 69.6861 199.281C69.7959 199.184 70.9177 200.014 71.88 201.322C72.6046 202.357 73.1592 203.502 73.5227 204.713C74.0413 206.324 73.7759 206.396 74.1303 207.363C75.219 210.332 78.0257 210.482 78.2044 212.694C78.2418 213.116 78.1809 213.541 78.0265 213.936C77.8721 214.33 77.6284 214.684 77.3145 214.968C76.077 215.987 73.9578 215.187 72.8085 214.736C70.0408 213.651 68.5269 211.973 66.8479 210.365C61.1386 204.896 56.8467 203.426 57.3735 201.601C57.4736 201.256 57.6063 201.381 59.5112 199.642C61.3914 197.925 61.7556 197.351 62.2856 197.471C63.0821 197.651 62.7423 199.062 64.0661 200.524C64.9007 201.408 66.0075 201.986 67.2094 202.166L67.2102 202.165Z" fill="#090814"/>
<path d="M19.8418 116.329C20.1788 115.122 19.7555 114.682 20.1871 114.139C20.1871 114.139 20.3607 113.921 21.9133 113.333C21.4553 110.671 21.7983 110.221 21.7983 110.221C22.0175 109.992 22.2893 109.819 22.5901 109.719C22.8909 109.619 23.2117 109.593 23.5245 109.645C24.6664 109.789 24.8664 110.821 25.596 110.798C26.604 110.766 27.8128 108.747 27.4376 106.995C27.1316 105.566 25.8118 104.505 25.481 104.69C25.1503 104.874 23.9722 104.067 23.5245 104.229C23.2186 104.339 21.7794 104.192 21.453 104.344C21.0966 104.509 20.0749 105.54 19.9784 105.41C19.3004 104.508 19.3145 104.192 18.9212 103.998C18.2239 103.653 17.4643 104.291 16.159 104.92C13.4697 106.215 12.6826 105.442 11.4404 106.533C10.8127 107.085 10.4765 108.137 9.82914 110.221C8.92352 113.135 8.4711 114.592 8.90855 115.983C9.35428 117.402 10.011 117.093 10.9801 119.095C12.0589 121.323 11.6888 122.618 12.7063 123.128C13.4938 123.522 14.76 123.272 15.2381 122.552C16.0567 121.32 13.9411 119.653 14.6628 117.712C15.1058 116.52 16.4721 115.616 17.31 115.868C18.2573 116.153 18.327 117.853 18.9212 117.827C19.4299 117.805 19.7831 116.54 19.8418 116.329Z" fill="#090814"/>
<path d="M13.2815 123.785C15.0534 121.795 22.2716 123.855 22.9492 127.012C23.228 128.31 22.2011 128.858 22.4889 130.353C22.9126 132.54 25.3117 132.391 27.0926 134.617C29.6209 137.778 27.0163 140.867 29.8548 146.142C30.4612 147.269 30.9726 148.219 32.0417 149.138C34.4947 151.248 36.7773 150.524 38.0266 152.48C38.9606 153.943 38.5779 155.746 38.4869 156.168C38.1184 157.899 37.1195 158.321 36.4154 159.74C35.244 162.101 36.5702 163.834 36.6458 166.655C36.7399 170.184 34.8672 175.076 31.1215 176.681C26.9135 178.484 21.8381 175.498 19.3823 172.532C17.9167 170.762 17.4923 169.13 16.8505 167.115C13.9852 158.112 12.3665 158.926 10.1752 151.788C7.67021 143.627 7.17803 134.069 10.1752 131.045C11.1124 130.216 11.8586 129.194 12.3621 128.048C13.2988 125.801 12.4897 124.675 13.2827 123.784L13.2815 123.785Z" fill="black"/>
<path d="M39.4654 170.099C40.8392 171.846 41.0522 173.973 39.941 174.848C38.8299 175.724 36.8159 175.016 35.4417 173.267C34.8832 172.576 34.4981 171.761 34.3187 170.891L28.5912 163.411L31.5511 161.151L37.4222 168.445C38.2254 168.825 38.926 169.392 39.4654 170.099Z" fill="#ED9DA0"/>
<path d="M18.4881 131.367C18.7428 131.31 20.973 130.847 22.726 132.206C24.74 133.767 24.6424 136.582 24.6081 137.57C24.5293 139.851 23.6363 140.223 23.1052 142.461C22.1113 146.648 24.0041 150.538 25.0495 152.688C26.0475 154.695 27.3417 156.54 28.8885 158.161C31.4374 160.908 34.2957 163.351 37.4061 165.439L33.0914 169.279C33.0914 169.279 26.2185 167.182 21.5617 162.979C16.7851 158.668 9.43894 143.416 7.91592 139.701C7.7848 139.381 9.6425 144.583 13.1894 136.963C13.9985 135.224 15.481 132.04 18.4881 131.367Z" fill="black"/>
<path d="M77.535 132.22C77.4791 132.22 77.4236 132.218 77.3677 132.214C72.986 131.894 68.7506 130.498 65.0355 128.15C61.3204 125.802 58.2398 122.574 56.0659 118.751C55.7953 118.278 55.6763 117.733 55.7248 117.19C55.7734 116.647 55.9873 116.132 56.3376 115.715L68.8036 100.842C69.0623 100.54 69.3839 100.299 69.7458 100.135C70.1077 99.971 70.5012 99.8885 70.8984 99.8933C71.4496 99.9063 72.7549 100.046 73.0081 101.053C74.5043 107.007 80.8291 114.004 88.434 114.932C89.2049 115.025 89.8235 115.714 90.0877 116.774C90.1907 117.176 90.1968 117.598 90.1054 118.003C90.014 118.409 89.8278 118.787 89.5621 119.106L79.5758 131.25C79.3283 131.553 79.0167 131.797 78.6634 131.965C78.3101 132.133 77.924 132.22 77.533 132.22H77.535ZM70.8507 100.492C70.5485 100.493 70.25 100.558 69.9756 100.685C69.7013 100.812 69.4577 100.997 69.2616 101.228L56.7967 116.099C56.5252 116.422 56.3593 116.82 56.3213 117.241C56.2832 117.661 56.375 118.083 56.584 118.45C58.7086 122.187 61.7197 125.344 65.3513 127.64C68.983 129.936 73.1234 131.301 77.407 131.615C77.7311 131.636 78.0553 131.579 78.3528 131.449C78.6502 131.318 78.9123 131.119 79.1171 130.866L89.1037 118.723C89.3095 118.476 89.4537 118.183 89.5245 117.869C89.5953 117.555 89.5906 117.229 89.5109 116.917C89.3534 116.291 88.9702 115.597 88.3627 115.523C80.5066 114.565 73.9751 107.341 72.4293 101.197C72.3041 100.7 71.5504 100.505 70.8866 100.489H70.8511L70.8507 100.492Z" fill="#3F3D56"/>
<path d="M63.6203 119.239L72.6076 110.062C73.2219 109.435 72.2595 108.469 71.6445 109.098L62.6568 118.275C62.0426 118.902 63.0053 119.867 63.6203 119.239Z" fill="#E6E6E6"/>
<path d="M69.0446 121.824C71.5254 119.594 73.6802 117.024 75.4453 114.192C75.9111 113.445 74.7331 112.76 74.2692 113.504C72.5624 116.235 70.4793 118.711 68.0815 120.859C67.4274 121.446 68.3933 122.409 69.0446 121.824Z" fill="#E6E6E6"/>
<path d="M73.9338 124.92C76.1955 122.416 78.1107 119.618 79.6278 116.603C80.0216 115.821 78.8458 115.129 78.4517 115.915C76.9932 118.829 75.1497 121.533 72.9707 123.955C72.3844 124.605 73.3452 125.572 73.9338 124.92Z" fill="#E6E6E6"/>
<path d="M70.0834 108.4C75.0878 108.4 79.1447 104.423 79.1447 99.518C79.1447 94.6125 75.0878 90.6359 70.0834 90.6359C65.0789 90.6359 61.022 94.6125 61.022 99.518C61.022 104.423 65.0789 108.4 70.0834 108.4Z" fill="black"/>
<path d="M74.7977 103.731L70.6173 93.4387C70.5849 93.3334 70.5196 93.2412 70.431 93.1757C70.3424 93.1102 70.2352 93.0749 70.1251 93.0749C70.015 93.0749 69.9078 93.1102 69.8192 93.1757C69.7306 93.2412 69.6653 93.3334 69.6329 93.4387C68.2612 97.0347 67.3508 100.79 66.9235 104.616C66.8499 105.268 67.8685 105.262 67.9434 104.616C68.1142 103.119 68.3623 101.632 68.6867 100.161C69.8376 100.22 70.9904 100.093 72.1009 99.7849L73.8137 104.004C74.0587 104.603 75.0454 104.341 74.7977 103.731ZM68.9187 99.1521C69.262 97.7443 69.673 96.3551 70.1515 94.9847L71.7143 98.8319C70.8025 99.0721 69.861 99.1799 68.9187 99.1521Z" fill="white"/>
<path d="M225.224 64.2655H166.949C165.645 64.2655 164.587 65.3247 164.587 66.6312C164.587 67.9376 165.645 68.9968 166.949 68.9968H225.224C226.529 68.9968 227.587 67.9376 227.587 66.6312C227.587 65.3247 226.529 64.2655 225.224 64.2655Z" fill="#090814"/>
<path d="M236.643 78.4592H155.531C154.226 78.4592 153.168 79.5184 153.168 80.8248C153.168 82.1313 154.226 83.1905 155.531 83.1905H236.643C237.948 83.1905 239.005 82.1313 239.005 80.8248C239.005 79.5184 237.948 78.4592 236.643 78.4592Z" fill="#F2F2F2"/>
<path d="M236.643 87.9217H155.531C154.226 87.9217 153.168 88.9808 153.168 90.2873C153.168 91.5938 154.226 92.6529 155.531 92.6529H236.643C237.948 92.6529 239.005 91.5938 239.005 90.2873C239.005 88.9808 237.948 87.9217 236.643 87.9217Z" fill="#F2F2F2"/>
<path d="M169.739 121.438L164.587 118.994C166.7 121.946 168.52 126.558 169.495 130.228C171.146 126.809 173.806 122.627 176.44 120.129L170.995 121.531C174.35 105.067 186.969 93.2467 201.42 93.2467L201.624 92.6522C186.53 92.6529 173.164 104.309 169.739 121.438Z" fill="#3F3D56"/>
<path d="M191.756 130.109H155.531C154.226 130.109 153.168 131.168 153.168 132.474C153.168 133.781 154.226 134.84 155.531 134.84H191.756C193.06 134.84 194.118 133.781 194.118 132.474C194.118 131.168 193.06 130.109 191.756 130.109Z" fill="black"/>
<path d="M236.643 130.109H200.418C199.113 130.109 198.056 131.168 198.056 132.474C198.056 133.781 199.113 134.84 200.418 134.84H236.643C237.948 134.84 239.005 133.781 239.005 132.474C239.005 131.168 237.948 130.109 236.643 130.109Z" fill="#D6D6E3"/>
<path d="M191.756 139.571H155.531C154.226 139.571 153.168 140.63 153.168 141.937C153.168 143.243 154.226 144.302 155.531 144.302H191.756C193.06 144.302 194.118 143.243 194.118 141.937C194.118 140.63 193.06 139.571 191.756 139.571Z" fill="#D6D6E3"/>
<path d="M236.643 139.571H200.418C199.113 139.571 198.056 140.63 198.056 141.937C198.056 143.243 199.113 144.302 200.418 144.302H236.643C237.948 144.302 239.005 143.243 239.005 141.937C239.005 140.63 237.948 139.571 236.643 139.571Z" fill="#D6D6E3"/>
<path d="M195.706 54.8031C202.664 54.8031 208.306 49.1544 208.306 42.1864C208.306 35.2185 202.664 29.5698 195.706 29.5698C188.747 29.5698 183.106 35.2185 183.106 42.1864C183.106 49.1544 188.747 54.8031 195.706 54.8031Z" fill="black"/>
<path d="M195.461 50.8702C196.28 50.8702 196.944 50.2056 196.944 49.3858C196.944 48.566 196.28 47.9014 195.461 47.9014C194.643 47.9014 193.979 48.566 193.979 49.3858C193.979 50.2056 194.643 50.8702 195.461 50.8702Z" fill="white"/>
<path d="M195.302 33.8954C194.185 33.9069 193.116 34.3544 192.322 35.1428C191.529 35.9312 191.075 36.9983 191.055 38.1172C191.055 38.1385 191.055 38.2891 191.055 38.4862C191.055 38.775 191.17 39.052 191.374 39.2562C191.578 39.4605 191.854 39.5752 192.143 39.5752C192.285 39.5752 192.427 39.5469 192.559 39.4921C192.691 39.4373 192.811 39.357 192.912 39.2557C193.013 39.1545 193.093 39.0343 193.148 38.9021C193.202 38.7699 193.231 38.6282 193.23 38.485C193.23 38.351 193.23 38.2583 193.23 38.2524C193.23 37.8938 193.323 37.5414 193.501 37.2297C193.678 36.9181 193.933 36.658 194.241 36.4751C194.549 36.2921 194.899 36.1926 195.257 36.1863C195.615 36.1801 195.969 36.2673 196.283 36.4393C196.597 36.6114 196.861 36.8624 197.049 37.1676C197.237 37.4729 197.343 37.8219 197.355 38.1803C197.367 38.5387 197.286 38.8941 197.12 39.2116C196.953 39.5291 196.707 39.7978 196.406 39.9912C196.406 39.9912 194.858 40.9891 194.386 42.3568C194.303 42.6372 194.261 42.9281 194.261 43.2206C194.261 43.3389 194.268 44.3928 194.282 45.2468C194.287 45.5413 194.407 45.8222 194.617 46.0287C194.827 46.2352 195.109 46.3509 195.403 46.3507C195.701 46.3507 195.986 46.2324 196.196 46.0218C196.406 45.8113 196.525 45.5256 196.525 45.2278V45.2207C196.52 44.4389 196.517 43.5281 196.517 43.4623C196.517 42.6217 197.327 41.7843 197.992 41.2382C198.762 40.6138 199.303 39.7511 199.53 38.7855C199.579 38.5863 199.605 38.3824 199.609 38.1775C199.609 37.0413 199.158 35.9516 198.356 35.1482C197.554 34.3447 196.465 33.8934 195.331 33.8934L195.302 33.8954Z" fill="white"/>
</g>
<defs>
<clipPath id="clip0_191_8">
<rect width="315" height="244" fill="white"/>
</clipPath>
</defs>
</svg>
