<svg width="118" height="83" viewBox="0 0 118 83" fill="none" xmlns="http://www.w3.org/2000/svg">
<g clip-path="url(#clip0_202_1688)">
<path d="M96.3792 52.0533H20.3802C19.8614 52.0527 19.364 51.8457 18.9972 51.4777C18.6304 51.1097 18.424 50.6108 18.4234 50.0904V3.08068C18.4239 2.69941 18.575 2.33388 18.8438 2.06428C19.1125 1.79467 19.4769 1.64302 19.857 1.64258H96.8776C97.2642 1.64302 97.6349 1.7973 97.9083 2.07156C98.1817 2.34582 98.3355 2.71768 98.3359 3.10554V50.0904C98.3354 50.6108 98.129 51.1097 97.7622 51.4777C97.3953 51.8457 96.8979 52.0527 96.3792 52.0533Z" fill="#F2F2F2"/>
<path d="M93.6068 49.2731H22.7777C21.7395 49.2731 20.8948 48.4796 20.8948 47.5043V6.56768C20.8948 5.84436 21.5207 5.25586 22.2901 5.25586H94.0713C94.8534 5.25586 95.4898 5.85406 95.4898 6.58928V47.5043C95.4898 48.4796 94.645 49.2731 93.6068 49.2731Z" fill="white"/>
<path d="M98.3087 2.96821H18.396V1.96886C18.3967 1.4467 18.6039 0.946171 18.9721 0.577067C19.3403 0.207963 19.8394 0.000431386 20.3599 0H96.3448C96.8653 0.000428871 97.3644 0.20796 97.7326 0.577064C98.1007 0.946169 98.3079 1.4467 98.3087 1.96886V2.96821Z" fill="#CCCCCC"/>
<path d="M21.9651 1.9967C22.2456 1.9967 22.4731 1.76855 22.4731 1.48712C22.4731 1.20569 22.2456 0.977539 21.9651 0.977539C21.6845 0.977539 21.4571 1.20569 21.4571 1.48712C21.4571 1.76855 21.6845 1.9967 21.9651 1.9967Z" fill="white"/>
<path d="M23.8932 1.9967C24.1738 1.9967 24.4012 1.76855 24.4012 1.48712C24.4012 1.20569 24.1738 0.977539 23.8932 0.977539C23.6127 0.977539 23.3853 1.20569 23.3853 1.48712C23.3853 1.76855 23.6127 1.9967 23.8932 1.9967Z" fill="white"/>
<path d="M25.8214 1.9967C26.102 1.9967 26.3294 1.76855 26.3294 1.48712C26.3294 1.20569 26.102 0.977539 25.8214 0.977539C25.5409 0.977539 25.3134 1.20569 25.3134 1.48712C25.3134 1.76855 25.5409 1.9967 25.8214 1.9967Z" fill="white"/>
<path d="M85.8107 42.4073H30.9213C30.371 42.4067 29.8435 42.1871 29.4544 41.7968C29.0654 41.4065 28.8465 40.8773 28.8459 40.3254V13.7778C28.8463 13.365 29.01 12.9692 29.301 12.6773C29.592 12.3854 29.9865 12.2212 30.398 12.2207H86.3091C86.7272 12.2212 87.128 12.388 87.4236 12.6846C87.7193 12.9811 87.8856 13.3832 87.886 13.8026V40.3254C87.8854 40.8773 87.6666 41.4065 87.2775 41.7968C86.8884 42.1871 86.3609 42.4067 85.8107 42.4073ZM30.398 12.4586C30.0494 12.459 29.7151 12.5981 29.4686 12.8454C29.2221 13.0927 29.0835 13.428 29.0831 13.7778V40.3254C29.0836 40.8143 29.2775 41.283 29.6221 41.6287C29.9667 41.9743 30.4339 42.1688 30.9213 42.1693H85.8107C86.298 42.1688 86.7652 41.9743 87.1098 41.6287C87.4544 41.283 87.6483 40.8143 87.6488 40.3254V13.8026C87.6484 13.4463 87.5072 13.1047 87.256 12.8527C87.0048 12.6008 86.6643 12.459 86.3091 12.4586H30.398Z" fill="#CCCCCC"/>
<path d="M32.8188 40.3258H83.9132C84.4164 40.3258 84.899 40.1253 85.2549 39.7683C85.6107 39.4114 85.8107 38.9272 85.8107 38.4224V16.2296C85.8107 15.7248 85.6107 15.2406 85.2549 14.8837C84.899 14.5267 84.4164 14.3262 83.9132 14.3262H32.8188C32.3155 14.3262 31.8329 14.5267 31.477 14.8837C31.1212 15.2406 30.9213 15.7248 30.9213 16.2296V38.4224C30.9213 38.9272 31.1212 39.4114 31.477 39.7683C31.8329 40.1253 32.3155 40.3258 32.8188 40.3258Z" fill="#F2F2F2"/>
<path d="M38.6202 20.783C39.2097 20.783 39.6876 20.3036 39.6876 19.7123C39.6876 19.121 39.2097 18.6416 38.6202 18.6416C38.0307 18.6416 37.5529 19.121 37.5529 19.7123C37.5529 20.3036 38.0307 20.783 38.6202 20.783Z" fill="#CCCCCC"/>
<path d="M38.6202 24.8279C39.2097 24.8279 39.6876 24.3485 39.6876 23.7572C39.6876 23.1659 39.2097 22.6865 38.6202 22.6865C38.0307 22.6865 37.5529 23.1659 37.5529 23.7572C37.5529 24.3485 38.0307 24.8279 38.6202 24.8279Z" fill="#CCCCCC"/>
<path d="M38.6202 28.8728C39.2097 28.8728 39.6876 28.3935 39.6876 27.8021C39.6876 27.2108 39.2097 26.7314 38.6202 26.7314C38.0307 26.7314 37.5529 27.2108 37.5529 27.8021C37.5529 28.3935 38.0307 28.8728 38.6202 28.8728Z" fill="#CCCCCC"/>
<path d="M38.6202 32.9168C39.2097 32.9168 39.6876 32.4374 39.6876 31.8461C39.6876 31.2548 39.2097 30.7754 38.6202 30.7754C38.0307 30.7754 37.5529 31.2548 37.5529 31.8461C37.5529 32.4374 38.0307 32.9168 38.6202 32.9168Z" fill="#CCCCCC"/>
<path d="M79.0604 19.8307H43.9569C43.9255 19.8307 43.8953 19.8182 43.8731 19.7959C43.8508 19.7736 43.8383 19.7433 43.8383 19.7117C43.8383 19.6802 43.8508 19.6499 43.8731 19.6276C43.8953 19.6053 43.9255 19.5928 43.9569 19.5928H79.0604C79.0919 19.5928 79.122 19.6053 79.1443 19.6276C79.1665 19.6499 79.179 19.6802 79.179 19.7117C79.179 19.7433 79.1665 19.7736 79.1443 19.7959C79.122 19.8182 79.0919 19.8307 79.0604 19.8307Z" fill="#CCCCCC"/>
<path d="M79.0604 23.8756H43.9569C43.9255 23.8756 43.8953 23.8631 43.8731 23.8408C43.8508 23.8185 43.8383 23.7882 43.8383 23.7567C43.8383 23.7251 43.8508 23.6949 43.8731 23.6725C43.8953 23.6502 43.9255 23.6377 43.9569 23.6377H79.0604C79.0919 23.6377 79.122 23.6502 79.1443 23.6725C79.1665 23.6949 79.179 23.7251 79.179 23.7567C79.179 23.7882 79.1665 23.8185 79.1443 23.8408C79.122 23.8631 79.0919 23.8756 79.0604 23.8756Z" fill="#CCCCCC"/>
<path d="M79.0604 27.9205H43.9569C43.9255 27.9205 43.8953 27.908 43.8731 27.8857C43.8508 27.8634 43.8383 27.8331 43.8383 27.8016C43.8383 27.77 43.8508 27.7398 43.8731 27.7175C43.8953 27.6952 43.9255 27.6826 43.9569 27.6826H79.0604C79.0919 27.6826 79.122 27.6952 79.1443 27.7175C79.1665 27.7398 79.179 27.77 79.179 27.8016C79.179 27.8331 79.1665 27.8634 79.1443 27.8857C79.122 27.908 79.0919 27.9205 79.0604 27.9205Z" fill="#CCCCCC"/>
<path d="M79.0604 31.9655H43.9569C43.9255 31.9655 43.8953 31.9529 43.8731 31.9306C43.8508 31.9083 43.8383 31.8781 43.8383 31.8465C43.8383 31.815 43.8508 31.7847 43.8731 31.7624C43.8953 31.7401 43.9255 31.7275 43.9569 31.7275H79.0604C79.0919 31.7275 79.122 31.7401 79.1443 31.7624C79.1665 31.7847 79.179 31.815 79.179 31.8465C79.179 31.8781 79.1665 31.9083 79.1443 31.9306C79.122 31.9529 79.0919 31.9655 79.0604 31.9655Z" fill="#CCCCCC"/>
<path d="M50.5981 36.0101H47.1589C47.0017 36.0099 46.851 35.9472 46.7398 35.8357C46.6287 35.7242 46.5661 35.573 46.5659 35.4153V32.2032C46.5661 32.0455 46.6287 31.8943 46.7398 31.7828C46.851 31.6713 47.0017 31.6086 47.1589 31.6084H50.5981C50.7553 31.6086 50.906 31.6713 51.0172 31.7828C51.1284 31.8943 51.1909 32.0455 51.1911 32.2032V35.4153C51.1909 35.573 51.1284 35.7242 51.0172 35.8357C50.906 35.9472 50.7553 36.0099 50.5981 36.0101Z" fill="#9A0000"/>
<path d="M58.3067 36.01H54.8675C54.7103 36.0098 54.5595 35.9471 54.4484 35.8356C54.3372 35.7241 54.2747 35.5729 54.2745 35.4152V28.1583C54.2747 28.0006 54.3372 27.8494 54.4484 27.7379C54.5595 27.6264 54.7103 27.5637 54.8675 27.5635H58.3067C58.4639 27.5637 58.6146 27.6264 58.7258 27.7379C58.8369 27.8494 58.8995 28.0006 58.8996 28.1583V35.4152C58.8995 35.5729 58.8369 35.7241 58.7258 35.8356C58.6146 35.9471 58.4639 36.0098 58.3067 36.01Z" fill="#9A0000"/>
<path d="M66.1338 36.0099H62.6946C62.5374 36.0098 62.3867 35.947 62.2755 35.8355C62.1643 35.724 62.1018 35.5728 62.1016 35.4151V24.1134C62.1018 23.9557 62.1643 23.8045 62.2755 23.693C62.3867 23.5815 62.5374 23.5187 62.6946 23.5186H66.1338C66.291 23.5187 66.4417 23.5815 66.5529 23.693C66.664 23.8045 66.7266 23.9557 66.7267 24.1134V35.4151C66.7266 35.5728 66.664 35.724 66.5529 35.8355C66.4417 35.947 66.291 36.0098 66.1338 36.0099Z" fill="#9A0000"/>
<path d="M74.1981 36.01H70.7589C70.6017 36.0098 70.451 35.9471 70.3398 35.8356C70.2287 35.7241 70.1661 35.5729 70.166 35.4152V20.1876C70.1661 20.0299 70.2287 19.8787 70.3398 19.7672C70.451 19.6557 70.6017 19.593 70.7589 19.5928H74.1981C74.3553 19.593 74.506 19.6557 74.6172 19.7672C74.7284 19.8787 74.7909 20.0299 74.7911 20.1876V35.4152C74.7909 35.5729 74.7284 35.7241 74.6172 35.8356C74.506 35.9471 74.3553 36.0098 74.1981 36.01Z" fill="#9A0000"/>
<path d="M79.0604 36.0104H43.9569C43.9255 36.0104 43.8953 35.9979 43.8731 35.9755C43.8508 35.9532 43.8383 35.923 43.8383 35.8914C43.8383 35.8599 43.8508 35.8296 43.8731 35.8073C43.8953 35.785 43.9255 35.7725 43.9569 35.7725H79.0604C79.0919 35.7725 79.122 35.785 79.1443 35.8073C79.1665 35.8296 79.179 35.8599 79.179 35.8914C79.179 35.923 79.1665 35.9532 79.1443 35.9755C79.122 35.9979 79.0919 36.0104 79.0604 36.0104Z" fill="#3F3D56"/>
<path d="M94.4832 58.203C94.5793 58.0571 94.7061 57.9341 94.8547 57.8426C95.0033 57.7512 95.1701 57.6936 95.3434 57.6738C95.5166 57.654 95.692 57.6726 95.8573 57.7282C96.0226 57.7838 96.1737 57.8751 96.3001 57.9956L100.066 56.0459L99.8318 58.2425L96.2915 59.7572C96.0756 59.9567 95.7942 60.0698 95.5008 60.075C95.2073 60.0803 94.9221 59.9774 94.6992 59.7858C94.4763 59.5943 94.3312 59.3273 94.2914 59.0356C94.2515 58.7438 94.3198 58.4476 94.4832 58.203Z" fill="#FFB8B8"/>
<path d="M97.7235 59.0222C97.638 58.955 97.5749 58.8632 97.5428 58.7591L97.2432 57.7884C97.2111 57.6833 97.2118 57.5707 97.2455 57.466C97.2792 57.3613 97.3441 57.2695 97.4314 57.203L100.484 54.8902L103.79 48.7383C103.928 48.5594 104.1 48.4096 104.296 48.2975C104.493 48.1853 104.709 48.1131 104.933 48.0848C105.157 48.0565 105.384 48.0728 105.602 48.1326C105.82 48.1925 106.024 48.2948 106.202 48.4337C106.38 48.5726 106.529 48.7454 106.641 48.9422C106.753 49.139 106.825 49.3559 106.853 49.5806C106.881 49.8054 106.865 50.0334 106.805 50.2519C106.746 50.4703 106.644 50.6748 106.505 50.8537L104.625 54.8355C104.054 56.0441 103.065 57.0036 101.842 57.5356L98.2649 59.092C98.1962 59.1219 98.1219 59.1369 98.0469 59.1361C97.9719 59.1353 97.898 59.1187 97.8298 59.0873C97.7919 59.0699 97.7562 59.048 97.7235 59.0222Z" fill="#3F3D56"/>
<path d="M106.588 46.171C108.197 46.171 109.501 44.8628 109.501 43.2491C109.501 41.6353 108.197 40.3271 106.588 40.3271C104.98 40.3271 103.676 41.6353 103.676 43.2491C103.676 44.8628 104.98 46.171 106.588 46.171Z" fill="#FFB8B8"/>
<path d="M105.407 81.5789L103.953 81.5788L103.262 75.9531L105.407 75.9532L105.407 81.5789Z" fill="#FFB8B8"/>
<path d="M102.914 81.1621H105.718V82.9331H101.149C101.149 82.7006 101.195 82.4703 101.283 82.2554C101.372 82.0405 101.502 81.8453 101.666 81.6808C101.83 81.5164 102.025 81.3859 102.239 81.2969C102.453 81.2079 102.683 81.1621 102.914 81.1621Z" fill="#2F2E41"/>
<path d="M110.151 81.579L108.697 81.5789L108.005 75.9531L110.151 75.9534L110.151 81.579Z" fill="#FFB8B8"/>
<path d="M107.658 81.1621H110.462V82.9331H105.893C105.893 82.7006 105.938 82.4703 106.027 82.2554C106.116 82.0405 106.246 81.8453 106.41 81.6808C106.574 81.5164 106.768 81.3859 106.983 81.2969C107.197 81.2079 107.426 81.1621 107.658 81.1621Z" fill="#2F2E41"/>
<path d="M110.257 80.1515L108.553 80.1514C108.436 80.1512 108.322 80.1123 108.229 80.0408C108.135 79.9692 108.068 79.8689 108.038 79.7553L105.585 70.6305C105.581 70.6163 105.573 70.604 105.56 70.596C105.548 70.588 105.533 70.5849 105.519 70.5873C105.504 70.5897 105.491 70.5974 105.482 70.6089C105.473 70.6204 105.468 70.6349 105.469 70.6496L105.964 79.3034C105.969 79.3799 105.957 79.4565 105.929 79.5279C105.901 79.5994 105.859 79.664 105.804 79.7175C105.749 79.771 105.684 79.8121 105.612 79.8379C105.54 79.8638 105.463 79.8739 105.387 79.8675L103.472 79.7073C103.349 79.6968 103.234 79.6441 103.146 79.5582C103.057 79.4723 103.001 79.3584 102.986 79.2358L101.242 61.0644L101.917 61.4707L108.241 60.3936L110.786 79.5454C110.796 79.621 110.79 79.6979 110.768 79.7709C110.746 79.8439 110.708 79.9114 110.658 79.9688C110.608 80.0261 110.547 80.0721 110.477 80.1036C110.408 80.1351 110.333 80.1514 110.257 80.1515Z" fill="#2F2E41"/>
<path d="M103.357 62.9826C102.659 62.977 101.976 62.7841 101.377 62.4237C101.285 62.369 101.212 62.2875 101.167 62.1901C101.121 62.0927 101.107 61.9838 101.124 61.8778C101.347 60.5113 102.51 53.5017 103.568 49.6804C103.999 48.1239 104.952 47.2857 106.401 47.1888C108.52 47.0494 110.403 48.7124 110.599 50.9005C110.945 54.7608 109.54 60.2453 108.92 62.4242C108.896 62.5084 108.851 62.5853 108.791 62.6483C108.73 62.7113 108.655 62.7584 108.572 62.7855C108.489 62.8125 108.401 62.8188 108.315 62.8036C108.229 62.7885 108.148 62.7524 108.079 62.6986L106.815 61.7119C106.737 61.6523 106.641 61.6219 106.543 61.626C106.445 61.6301 106.352 61.6684 106.279 61.7343C105.214 62.6879 104.201 62.9827 103.357 62.9826Z" fill="#3F3D56"/>
<path opacity="0.2" d="M107.539 52.7891L108.606 57.3099L107.064 61.1166L108.131 57.4288L107.539 52.7891Z" fill="black"/>
<path d="M108.25 45.6519C108.51 45.6568 108.767 45.61 109.008 45.5145C109.114 45.4735 109.224 45.4398 109.33 45.3988C110.265 45.0366 110.881 44.038 110.903 43.033C110.925 42.0281 110.406 41.0527 109.636 40.4098C108.865 39.767 107.867 39.4369 106.868 39.3605C105.792 39.2783 104.58 39.552 103.979 40.4511C103.819 40.6904 103.707 40.9808 103.801 41.2698C103.83 41.357 103.881 41.4352 103.949 41.4965C104.217 41.7362 104.485 41.556 104.759 41.5401C105.135 41.5182 105.473 41.8238 105.595 42.1818C105.716 42.5398 105.662 42.9339 105.564 43.299C105.49 43.5187 105.443 43.7469 105.424 43.9783C105.416 44.0943 105.438 44.2104 105.487 44.3157C105.537 44.4209 105.612 44.5118 105.706 44.5796C105.941 44.7222 106.25 44.6397 106.485 44.4973C106.721 44.355 106.924 44.1571 107.178 44.0523C107.432 43.9476 107.774 43.9708 107.922 44.2031C107.969 44.2876 108.001 44.3798 108.016 44.4754C108.148 45.0815 108.118 45.0458 108.25 45.6519Z" fill="#2F2E41"/>
<path d="M103.736 77.4976L85.4967 71.1258C85.1837 71.016 84.9269 70.7862 84.7826 70.4868C84.6383 70.1874 84.6183 69.8428 84.727 69.5286L89.4667 55.8763C89.5468 55.6462 89.7146 55.4575 89.9333 55.3515C90.152 55.2454 90.4036 55.2307 90.6331 55.3106L109.489 61.8979C109.722 61.9797 109.913 62.1509 110.021 62.3741C110.129 62.5973 110.143 62.8541 110.062 63.0883L105.328 76.7256C105.219 77.0395 104.99 77.2971 104.691 77.4419C104.393 77.5866 104.049 77.6067 103.736 77.4976Z" fill="#E6E6E6"/>
<path d="M87.0531 70.3414L103.002 75.9132C103.306 76.0193 103.639 76 103.928 75.8596C104.218 75.7192 104.44 75.4692 104.546 75.1645L108.373 64.1404C108.479 63.8357 108.46 63.5014 108.32 63.2109C108.18 62.9205 107.93 62.6977 107.627 62.5916L91.6779 57.0198C91.3742 56.9137 91.0409 56.933 90.7514 57.0734C90.4618 57.2138 90.2397 57.4638 90.134 57.7685L86.3067 68.7926C86.2544 68.9435 86.2321 69.1032 86.2413 69.2627C86.2505 69.4222 86.2908 69.5783 86.3602 69.7221C86.4295 69.8659 86.5263 69.9946 86.6452 70.1009C86.7641 70.2072 86.9027 70.2889 87.0531 70.3414Z" fill="white"/>
<path d="M91.058 62.5963L90.2682 62.3203C90.2254 62.3053 90.1902 62.2739 90.1705 62.2329C90.1507 62.1919 90.148 62.1448 90.1629 62.1018L90.438 61.3095C90.4529 61.2665 90.4843 61.2313 90.5251 61.2115C90.5659 61.1917 90.6129 61.1889 90.6558 61.2038L91.4456 61.4798C91.4885 61.4948 91.5236 61.5262 91.5433 61.5672C91.5631 61.6082 91.5658 61.6553 91.5509 61.6983L91.2759 62.4906C91.2609 62.5336 91.2296 62.5688 91.1887 62.5886C91.1479 62.6084 91.1009 62.6112 91.058 62.5963Z" fill="#9A0000"/>
<path d="M90.3454 64.649L89.5555 64.3731C89.5127 64.358 89.4775 64.3266 89.4578 64.2856C89.4381 64.2447 89.4353 64.1975 89.4502 64.1545L89.7253 63.3622C89.7402 63.3192 89.7716 63.284 89.8124 63.2642C89.8533 63.2444 89.9003 63.2416 89.9431 63.2566L90.733 63.5325C90.7758 63.5475 90.8109 63.579 90.8307 63.6199C90.8504 63.6609 90.8531 63.708 90.8383 63.751L90.5632 64.5434C90.5482 64.5863 90.5169 64.6216 90.476 64.6414C90.4352 64.6612 90.3882 64.6639 90.3454 64.649Z" fill="#3F3D56"/>
<path d="M89.6327 66.7017L88.8428 66.4258C88.8 66.4108 88.7648 66.3793 88.7451 66.3384C88.7254 66.2974 88.7226 66.2503 88.7375 66.2073L89.0126 65.4149C89.0275 65.372 89.0589 65.3367 89.0997 65.3169C89.1405 65.2971 89.1875 65.2944 89.2304 65.3093L90.0203 65.5852C90.0631 65.6003 90.0982 65.6317 90.118 65.6727C90.1377 65.7136 90.1404 65.7608 90.1256 65.8038L89.8505 66.5961C89.8355 66.6391 89.8042 66.6743 89.7633 66.6941C89.7225 66.7139 89.6755 66.7166 89.6327 66.7017Z" fill="#CCCCCC"/>
<path d="M96.3656 64.0061L92.5599 62.6766C92.5386 62.6692 92.519 62.6577 92.5022 62.6428C92.4853 62.6278 92.4716 62.6096 92.4618 62.5893C92.452 62.569 92.4462 62.5469 92.4449 62.5244C92.4436 62.5018 92.4468 62.4793 92.4542 62.458C92.4616 62.4366 92.4731 62.417 92.4881 62.4001C92.503 62.3833 92.5212 62.3696 92.5415 62.3598C92.5617 62.35 92.5837 62.3443 92.6062 62.343C92.6287 62.3418 92.6512 62.345 92.6724 62.3525L96.4781 63.682C96.4994 63.6894 96.519 63.7009 96.5358 63.7159C96.5527 63.7308 96.5664 63.749 96.5762 63.7693C96.586 63.7896 96.5917 63.8117 96.5931 63.8342C96.5944 63.8568 96.5912 63.8793 96.5838 63.9007C96.5764 63.922 96.5649 63.9416 96.5499 63.9585C96.5349 63.9753 96.5168 63.989 96.4965 63.9988C96.4762 64.0086 96.4542 64.0143 96.4318 64.0156C96.4093 64.0168 96.3868 64.0136 96.3656 64.0061Z" fill="#CCCCCC"/>
<path d="M95.6529 66.0587L91.8472 64.7292C91.8043 64.7142 91.7692 64.6828 91.7494 64.6418C91.7297 64.6008 91.727 64.5537 91.7419 64.5107C91.7568 64.4677 91.7881 64.4324 91.829 64.4126C91.8698 64.3928 91.9169 64.3901 91.9597 64.4051L95.7654 65.7346C95.7867 65.742 95.8063 65.7535 95.8231 65.7685C95.8399 65.7834 95.8536 65.8016 95.8634 65.8219C95.8732 65.8422 95.879 65.8643 95.8803 65.8868C95.8816 65.9093 95.8784 65.9319 95.871 65.9532C95.8636 65.9745 95.8521 65.9942 95.8372 66.011C95.8222 66.0279 95.804 66.0416 95.7838 66.0514C95.7635 66.0612 95.7415 66.0669 95.719 66.0681C95.6966 66.0694 95.6741 66.0662 95.6529 66.0587Z" fill="#CCCCCC"/>
<path d="M94.9402 68.1115L91.1345 66.7819C91.0916 66.767 91.0565 66.7355 91.0367 66.6946C91.017 66.6536 91.0143 66.6064 91.0292 66.5634C91.0441 66.5204 91.0755 66.4852 91.1163 66.4653C91.1572 66.4455 91.2042 66.4428 91.247 66.4578L95.0527 67.7873C95.0956 67.8023 95.1307 67.8337 95.1505 67.8747C95.1702 67.9157 95.1729 67.9628 95.158 68.0058C95.1431 68.0488 95.1118 68.0841 95.0709 68.1039C95.0301 68.1237 94.983 68.1264 94.9402 68.1115Z" fill="#CCCCCC"/>
<path d="M105.068 69.2244C105.096 69.1577 105.122 69.0899 105.146 69.0208C105.459 68.1198 105.402 67.131 104.988 66.272C104.574 65.4131 103.837 64.7542 102.939 64.4404L101.688 68.0436L105.068 69.2244Z" fill="#9A0000"/>
<path d="M101.324 68.2623L102.575 64.6592C101.914 64.4282 101.2 64.3963 100.521 64.5676C99.842 64.7388 99.2279 65.1056 98.7543 65.6227C98.2808 66.1398 97.9684 66.7847 97.8558 67.4777C97.7432 68.1708 97.8353 68.8818 98.1207 69.523C98.4061 70.1642 98.8723 70.7076 99.4619 71.0861C100.051 71.4647 100.739 71.6619 101.439 71.6534C102.139 71.6449 102.821 71.4311 103.401 71.0384C103.981 70.6456 104.434 70.0911 104.704 69.4432L101.324 68.2623Z" fill="#3F3D56"/>
<path d="M105.802 63.0939C105.788 62.9196 105.812 62.7443 105.873 62.5803C105.933 62.4164 106.029 62.2678 106.153 62.145C106.278 62.0222 106.427 61.9282 106.591 61.8696C106.756 61.811 106.931 61.7893 107.104 61.8059L108.868 57.9404L110.035 59.8139L108.181 63.1974C108.134 63.488 107.982 63.7512 107.754 63.937C107.527 64.1228 107.239 64.2184 106.946 64.2057C106.653 64.1929 106.374 64.0727 106.163 63.8678C105.953 63.6629 105.824 63.3875 105.802 63.0939Z" fill="#FFB8B8"/>
<path d="M108.856 61.7327C108.747 61.7328 108.641 61.6996 108.552 61.6376L107.719 61.0592C107.629 60.9964 107.56 60.9073 107.522 60.8041C107.484 60.7009 107.479 60.5884 107.507 60.482L108.486 56.7726L107.302 49.8854C107.301 49.6587 107.344 49.434 107.43 49.2242C107.515 49.0143 107.64 48.8233 107.799 48.6622C107.958 48.501 108.147 48.3729 108.356 48.2851C108.564 48.1973 108.787 48.1515 109.013 48.1504C109.239 48.1493 109.463 48.1929 109.672 48.2787C109.881 48.3645 110.072 48.4908 110.232 48.6504C110.393 48.8099 110.52 48.9997 110.607 49.2087C110.695 49.4178 110.74 49.642 110.741 49.8687L111.71 54.1661C112.005 55.4704 111.817 56.8376 111.182 58.0133L109.325 61.4524C109.289 61.5185 109.24 61.5763 109.18 61.6221C109.121 61.6679 109.052 61.7006 108.98 61.7181C108.939 61.7279 108.897 61.7328 108.856 61.7327Z" fill="#3F3D56"/>
<path d="M117.881 82.9996H95.3488C95.3173 82.9996 95.2871 82.9871 95.2649 82.9648C95.2427 82.9425 95.2302 82.9122 95.2302 82.8807C95.2302 82.8491 95.2427 82.8189 95.2649 82.7966C95.2871 82.7743 95.3173 82.7617 95.3488 82.7617H117.881C117.913 82.7617 117.943 82.7743 117.965 82.7966C117.988 82.8189 118 82.8491 118 82.8807C118 82.9122 117.988 82.9425 117.965 82.9648C117.943 82.9871 117.913 82.9996 117.881 82.9996Z" fill="#CCCCCC"/>
<path d="M58.1747 81.5202L59.6287 81.5201L60.3203 75.8945H58.1745L58.1747 81.5202Z" fill="#A0616A"/>
<path d="M57.8039 81.0441L60.6671 81.0439C60.9068 81.0439 61.1442 81.0913 61.3656 81.1833C61.5869 81.2752 61.7881 81.4101 61.9575 81.58C62.127 81.75 62.2614 81.9518 62.3531 82.1739C62.4448 82.396 62.492 82.634 62.492 82.8744V82.9339L57.804 82.934L57.8039 81.0441Z" fill="#2F2E41"/>
<path d="M52.3636 81.5202L53.8176 81.5201L54.5092 75.8945H52.3634L52.3636 81.5202Z" fill="#A0616A"/>
<path d="M51.9928 81.0441L54.8561 81.0439C55.0957 81.0439 55.3331 81.0913 55.5545 81.1833C55.7759 81.2752 55.9771 81.4101 56.1465 81.58C56.316 81.75 56.4504 81.9518 56.5421 82.1739C56.6338 82.396 56.681 82.634 56.681 82.8744V82.9339L51.9929 82.934L51.9928 81.0441Z" fill="#2F2E41"/>
<path d="M58.4649 42.5723C60.0736 42.5723 61.3777 41.2642 61.3777 39.6504C61.3777 38.0367 60.0736 36.7285 58.4649 36.7285C56.8562 36.7285 55.5522 38.0367 55.5522 39.6504C55.5522 41.2642 56.8562 42.5723 58.4649 42.5723Z" fill="#A0616A"/>
<path d="M60.4237 80.3059H57.7256C57.655 80.3059 57.585 80.2919 57.5199 80.2646C57.4547 80.2372 57.3956 80.1972 57.346 80.1468C57.2963 80.0964 57.2571 80.0366 57.2307 79.9709C57.2043 79.9052 57.1911 79.8349 57.192 79.7641L57.3487 66.9121C57.3493 66.8664 57.3324 66.8223 57.3016 66.7888C57.2707 66.7552 57.2282 66.7348 57.1828 66.7318C57.1373 66.7287 57.0925 66.7433 57.0574 66.7724C57.0224 66.8015 56.9998 66.843 56.9943 66.8883L55.424 79.8353C55.4082 79.9651 55.3455 80.0846 55.248 80.1712C55.1504 80.2579 55.0246 80.3058 54.8943 80.3059H52.1703C52.0967 80.3059 52.0239 80.2907 51.9565 80.2611C51.889 80.2315 51.8284 80.1883 51.7785 80.1341C51.7285 80.0799 51.6902 80.0159 51.6661 79.9462C51.642 79.8765 51.6325 79.8025 51.6382 79.7289L53.437 56.6406L53.4859 56.6353L62.0992 55.7021L60.9567 79.796C60.9504 79.9335 60.8914 80.0632 60.7921 80.1582C60.6928 80.2532 60.5609 80.3061 60.4237 80.3059Z" fill="#2F2E41"/>
<path d="M53.5418 58.0579C53.4035 58.0576 53.2706 58.0033 53.1714 57.9065C53.0722 57.8098 53.0143 57.6781 53.0101 57.5394C52.9631 56.0795 52.8825 51.0281 53.8191 47.3196C54.0747 46.3065 54.6485 45.4029 55.4557 44.7422C56.2628 44.0815 57.2604 43.6988 58.3011 43.6508C59.3253 43.5947 60.3412 43.8636 61.2046 44.4193C62.068 44.975 62.735 45.7893 63.111 46.7467C64.6854 50.7562 66.1728 55.6984 64.3184 56.4736C61.8879 57.4894 55.4805 57.9423 53.5746 58.0568C53.5636 58.0575 53.5527 58.0579 53.5418 58.0579Z" fill="#3F3D56"/>
<path d="M64.6743 36.6977C64.7201 36.7449 64.7695 36.7884 64.8221 36.8278L64.5163 42.7197L63.2445 43.3729L63.9763 45.4271L66.3398 44.4903C66.5308 44.4146 66.6921 44.2788 66.7995 44.1034C66.907 43.9279 66.9548 43.7222 66.9358 43.5171L66.3166 36.8337C66.5193 36.682 66.6711 36.4721 66.7518 36.2318C66.8326 35.9915 66.8385 35.7322 66.7688 35.4885C66.6991 35.2447 66.5571 35.028 66.3616 34.8672C66.1662 34.7064 65.9265 34.6091 65.6746 34.5882C65.4226 34.5674 65.1703 34.6239 64.9512 34.7504C64.7321 34.8769 64.5566 35.0674 64.448 35.2964C64.3394 35.5254 64.3029 35.7821 64.3433 36.0324C64.3838 36.2828 64.4992 36.5148 64.6743 36.6977Z" fill="#A0616A"/>
<path d="M64.5404 42.9387L65.4351 45.4892C65.4606 45.5617 65.4701 45.639 65.4632 45.7156C65.4562 45.7922 65.4328 45.8664 65.3947 45.9331C65.3565 45.9999 65.3045 46.0576 65.2421 46.1023C65.1797 46.1471 65.1085 46.1778 65.0332 46.1925L62.395 46.7049C62.0242 46.8335 61.6176 46.8093 61.2645 46.6377C60.9114 46.466 60.6405 46.1608 60.5114 45.7891C60.3822 45.4175 60.4053 45.0095 60.5755 44.6549C60.7457 44.3002 61.0491 44.0277 61.4193 43.8971L63.788 42.6429C63.8559 42.607 63.9306 42.5862 64.0072 42.5819C64.0838 42.5776 64.1604 42.5899 64.2318 42.618C64.3032 42.646 64.3677 42.6892 64.4209 42.7446C64.4742 42.7999 64.515 42.8661 64.5404 42.9387Z" fill="#3F3D56"/>
<path d="M52.0576 36.6977C52.0118 36.7449 51.9624 36.7884 51.9098 36.8278L52.2156 42.7197L53.4874 43.3729L52.7556 45.4271L50.3921 44.4903C50.2011 44.4146 50.0398 44.2788 49.9324 44.1034C49.8249 43.9279 49.7771 43.7222 49.7961 43.5171L50.4153 36.8337C50.2126 36.682 50.0608 36.4721 49.9801 36.2318C49.8993 35.9915 49.8934 35.7322 49.9631 35.4885C50.0328 35.2447 50.1748 35.028 50.3703 34.8672C50.5657 34.7064 50.8054 34.6091 51.0573 34.5882C51.3093 34.5674 51.5616 34.6239 51.7807 34.7504C51.9998 34.8769 52.1753 35.0674 52.2839 35.2964C52.3925 35.5254 52.429 35.7821 52.3886 36.0324C52.3481 36.2828 52.2327 36.5148 52.0576 36.6977Z" fill="#A0616A"/>
<path d="M52.5002 42.618C52.5715 42.5899 52.6481 42.5776 52.7247 42.5819C52.8013 42.5862 52.876 42.607 52.9438 42.6429L55.3126 43.8972C55.6828 44.0278 55.9862 44.3002 56.1564 44.6549C56.3266 45.0096 56.3497 45.4175 56.2205 45.7892C56.0913 46.1609 55.8205 46.466 55.4674 46.6377C55.1143 46.8094 54.7077 46.8336 54.3368 46.705L51.6987 46.1925C51.6234 46.1779 51.5521 46.1471 51.4898 46.1024C51.4274 46.0576 51.3753 45.9999 51.3372 45.9332C51.2991 45.8664 51.2757 45.7922 51.2687 45.7156C51.2617 45.639 51.2713 45.5618 51.2968 45.4892L52.1915 42.9387C52.2169 42.8662 52.2576 42.7999 52.3109 42.7446C52.3642 42.6892 52.4287 42.646 52.5002 42.618Z" fill="#3F3D56"/>
<path d="M59.5962 40.1486C59.5809 39.7759 59.6742 39.4068 59.8645 39.0863C60.0549 38.7659 60.3343 38.508 60.6684 38.3442C61.5538 37.8857 62.11 36.9077 61.8662 36.0146C61.5543 34.8715 60.0033 34.1301 58.7466 34.5234C58.4065 34.6445 58.0785 34.7975 57.767 34.9802L56.9459 35.4216C56.5952 35.5978 56.257 35.798 55.9339 36.021C55.4498 36.3788 55.0704 36.8605 54.8352 37.4157C54.6001 37.9709 54.518 38.5792 54.5973 39.1771C54.759 40.3393 55.5176 41.405 56.5562 42.1347C56.9533 42.4325 57.412 42.637 57.8985 42.7333C58.3963 42.8156 58.9504 42.722 59.3144 42.4115C59.8832 41.9262 59.8245 41.1135 59.6405 40.4347C59.6162 40.3411 59.6013 40.2452 59.5962 40.1486Z" fill="#2F2E41"/>
<path d="M69.4955 82.9996H46.9628C46.9313 82.9996 46.9012 82.9871 46.8789 82.9648C46.8567 82.9425 46.8442 82.9122 46.8442 82.8807C46.8442 82.8491 46.8567 82.8189 46.8789 82.7966C46.9012 82.7743 46.9313 82.7617 46.9628 82.7617H69.4955C69.5269 82.7617 69.5571 82.7743 69.5793 82.7966C69.6016 82.8189 69.6141 82.8491 69.6141 82.8807C69.6141 82.9122 69.6016 82.9425 69.5793 82.9648C69.5571 82.9871 69.5269 82.9996 69.4955 82.9996Z" fill="#CCCCCC"/>
<path d="M32.7209 61.2978L14.1283 68.9493C13.809 69.0803 13.4509 69.0789 13.1326 68.9454C12.8144 68.8118 12.5619 68.5571 12.4306 68.2371L6.7391 54.3202C6.64344 54.0855 6.64447 53.8224 6.74197 53.5885C6.83948 53.3546 7.02549 53.169 7.2592 53.0725L26.4804 45.1623C26.7184 45.0647 26.9852 45.0657 27.2224 45.1653C27.4596 45.2648 27.6478 45.4546 27.7457 45.6931L33.4309 59.5947C33.5615 59.9151 33.5601 60.2743 33.427 60.5935C33.2939 60.9128 33.04 61.1661 32.7209 61.2978Z" fill="#E6E6E6"/>
<path d="M14.8018 67.2608L31.0598 60.5701C31.3694 60.4426 31.6158 60.1971 31.7449 59.8874C31.874 59.5777 31.8752 59.2292 31.7482 58.9187L27.1524 47.6808C27.0895 47.527 26.997 47.3872 26.8802 47.2693C26.7635 47.1513 26.6247 47.0576 26.4718 46.9935C26.3189 46.9294 26.155 46.8961 25.9893 46.8955C25.8236 46.895 25.6594 46.9271 25.5061 46.9902L9.24813 53.681C9.09483 53.744 8.95542 53.8368 8.83786 53.9539C8.7203 54.0711 8.62689 54.2103 8.56296 54.3636C8.49903 54.517 8.46584 54.6815 8.46528 54.8477C8.46472 55.0139 8.4968 55.1786 8.55969 55.3324L13.1555 66.5702C13.2184 66.724 13.3109 66.8638 13.4277 66.9818C13.5444 67.0997 13.6832 67.1934 13.8361 67.2575C13.9889 67.3216 14.1529 67.3549 14.3186 67.3555C14.4843 67.3561 14.6485 67.3239 14.8018 67.2608Z" fill="white"/>
<path d="M27.0625 50.7454L26.8235 50.8438L26.8398 50.8837L27.0789 50.7853L27.0625 50.7454Z" fill="#E6E6E6"/>
<path d="M26.357 51.0829L25.8741 51.2817L25.8577 51.2417L26.3406 51.043L26.357 51.0829ZM25.3912 51.4804L24.9083 51.6791L24.892 51.6391L25.3748 51.4404L25.3912 51.4804ZM24.4254 51.8778L23.9426 52.0765L23.9262 52.0366L24.4091 51.8379L24.4254 51.8778ZM23.4597 52.2753L22.9768 52.474L22.9604 52.434L23.4433 52.2353L23.4597 52.2753ZM22.4939 52.6727L22.011 52.8714L21.9947 52.8315L22.4776 52.6328L22.4939 52.6727ZM21.5281 53.0702L21.0453 53.2689L21.0289 53.2289L21.5118 53.0302L21.5281 53.0702ZM20.5624 53.4676L20.0795 53.6663L20.0632 53.6264L20.546 53.4277L20.5624 53.4676ZM19.5966 53.8651L19.1137 54.0638L19.0974 54.0238L19.5803 53.8251L19.5966 53.8651ZM18.6308 54.2625L18.148 54.4612L18.1316 54.4213L18.6145 54.2225L18.6308 54.2625ZM17.6651 54.66L17.1822 54.8587L17.1659 54.8187L17.6487 54.62L17.6651 54.66ZM16.6993 55.0574L16.2164 55.2561L16.2001 55.2162L16.683 55.0174L16.6993 55.0574ZM15.7336 55.4548L15.2507 55.6536L15.2343 55.6136L15.7172 55.4149L15.7336 55.4548ZM14.7678 55.8523L14.2849 56.051L14.2686 56.0111L14.7515 55.8123L14.7678 55.8523ZM13.802 56.2497L13.3191 56.4485L13.3028 56.4085L13.7857 56.2098L13.802 56.2497ZM12.8363 56.6472L12.3534 56.8459L12.337 56.8059L12.8199 56.6072L12.8363 56.6472ZM11.8705 57.0446L11.3876 57.2434L11.3713 57.2034L11.8542 57.0047L11.8705 57.0446Z" fill="#E6E6E6"/>
<path d="M10.8884 57.4016L10.6494 57.5L10.6657 57.54L10.9047 57.4416L10.8884 57.4016Z" fill="#E6E6E6"/>
<path d="M20.7344 57.6917L20.4954 57.79L20.5117 57.83L20.7508 57.7316L20.7344 57.6917Z" fill="#E6E6E6"/>
<path d="M20.036 58.0263L19.5603 58.2221L19.544 58.1821L20.0197 57.9863L20.036 58.0263ZM19.0846 58.4178L18.6089 58.6136L18.5925 58.5736L19.0683 58.3779L19.0846 58.4178ZM18.1332 58.8094L17.6575 59.0051L17.6411 58.9652L18.1168 58.7694L18.1332 58.8094ZM17.1818 59.2009L16.7061 59.3967L16.6897 59.3567L17.1654 59.161L17.1818 59.2009ZM16.2303 59.5925L15.7546 59.7882L15.7383 59.7483L16.214 59.5525L16.2303 59.5925ZM15.2789 59.984L14.8032 60.1798L14.7869 60.1398L15.2626 59.9441L15.2789 59.984ZM14.3275 60.3756L13.8518 60.5713L13.8354 60.5314L14.3112 60.3356L14.3275 60.3756ZM13.3761 60.7671L12.9004 60.9629L12.884 60.9229L13.3597 60.7271L13.3761 60.7671Z" fill="#E6E6E6"/>
<path d="M12.4083 61.1184L12.1693 61.2168L12.1856 61.2568L12.4247 61.1584L12.4083 61.1184Z" fill="#E6E6E6"/>
<path d="M16.7925 61.3684L16.5535 61.4668L16.5698 61.5068L16.8088 61.4084L16.7925 61.3684Z" fill="#E6E6E6"/>
<path d="M16.0804 61.7079L15.5909 61.9093L15.5746 61.8694L16.064 61.668L16.0804 61.7079ZM15.1015 62.1108L14.6121 62.3122L14.5957 62.2722L15.0852 62.0708L15.1015 62.1108ZM14.1226 62.5136L13.6332 62.715L13.6169 62.6751L14.1063 62.4737L14.1226 62.5136Z" fill="#E6E6E6"/>
<path d="M13.1274 62.8772L12.8884 62.9756L12.9047 63.0155L13.1438 62.9172L13.1274 62.8772Z" fill="#E6E6E6"/>
<path d="M18.0197 64.3694L17.7806 64.4678L17.797 64.5077L18.036 64.4094L18.0197 64.3694Z" fill="#E6E6E6"/>
<path d="M17.3076 64.7089L16.8181 64.9103L16.8018 64.8704L17.2912 64.6689L17.3076 64.7089ZM16.3287 65.1117L15.8393 65.3132L15.8229 65.2732L16.3124 65.0718L16.3287 65.1117ZM15.3498 65.5146L14.8604 65.716L14.8441 65.676L15.3335 65.4746L15.3498 65.5146Z" fill="#E6E6E6"/>
<path d="M14.3546 65.8772L14.1156 65.9756L14.1319 66.0155L14.3709 65.9172L14.3546 65.8772Z" fill="#E6E6E6"/>
<path d="M15.4921 65.492L29.2696 59.8221C29.6031 59.6844 29.8685 59.4197 30.0076 59.086C30.1467 58.7523 30.1482 58.3769 30.0117 58.0421L27.228 51.2354L27.2011 51.2473L23.8201 59.3569L21.3125 58.3052C21.2662 58.2857 21.2161 58.2771 21.1659 58.2803C21.1158 58.2834 21.0671 58.2981 21.0236 58.3233C20.9584 58.3627 20.9078 58.4226 20.8799 58.4938L19.108 62.7434L17.2746 61.9746C17.235 61.958 17.1926 61.9494 17.1497 61.9492C17.1068 61.9491 17.0643 61.9574 17.0246 61.9737C16.9849 61.99 16.9489 62.0141 16.9184 62.0444C16.888 62.0747 16.8638 62.1107 16.8473 62.1504C16.8356 62.1793 15.7051 64.9617 15.4921 65.492Z" fill="#9A0000"/>
<path d="M15.4497 65.5563L15.4099 65.5396L16.8277 62.1388C16.8652 62.0491 16.9367 61.9779 17.0265 61.941C17.1163 61.904 17.217 61.9043 17.3065 61.9418L19.1038 62.6957L20.8656 58.4695C20.9031 58.3797 20.9746 58.3085 21.0644 58.2716C21.1542 58.2346 21.2549 58.2349 21.3445 58.2724L23.8159 59.3091L27.2142 51.1572L27.254 51.1739L23.839 59.3657L21.3279 58.3122C21.2887 58.2958 21.2468 58.2873 21.2044 58.2872C21.1619 58.287 21.1199 58.2952 21.0807 58.3114C21.0414 58.3275 21.0058 58.3513 20.9757 58.3813C20.9456 58.4112 20.9217 58.4469 20.9053 58.4861L19.1269 62.7522L17.2899 61.9816C17.2109 61.9486 17.122 61.9483 17.0428 61.9809C16.9636 62.0135 16.9005 62.0763 16.8674 62.1555L15.4497 65.5563Z" fill="#3F3D56"/>
<path d="M16.8007 61.6907C16.9672 61.6907 17.1021 61.5553 17.1021 61.3883C17.1021 61.2213 16.9672 61.0859 16.8007 61.0859C16.6342 61.0859 16.4993 61.2213 16.4993 61.3883C16.4993 61.5553 16.6342 61.6907 16.8007 61.6907Z" fill="#3F3D56"/>
<path d="M20.7426 58.0139C20.909 58.0139 21.044 57.8785 21.044 57.7115C21.044 57.5446 20.909 57.4092 20.7426 57.4092C20.5761 57.4092 20.4412 57.5446 20.4412 57.7115C20.4412 57.8785 20.5761 58.0139 20.7426 58.0139Z" fill="#3F3D56"/>
<path d="M26.8805 51.0569C27.047 51.0569 27.182 50.9215 27.182 50.7545C27.182 50.5875 27.047 50.4521 26.8805 50.4521C26.7141 50.4521 26.5791 50.5875 26.5791 50.7545C26.5791 50.9215 26.7141 51.0569 26.8805 51.0569Z" fill="#3F3D56"/>
<path d="M10.0094 61.0455C10.1661 60.9673 10.3038 60.8556 10.4128 60.7182C10.5217 60.5808 10.5994 60.4211 10.6402 60.2504C10.681 60.0797 10.684 59.902 10.649 59.73C10.614 59.558 10.5418 59.3958 10.4375 59.2548L11.3327 50.4746H9.39806L8.68661 59.048C8.46209 59.2394 8.31537 59.5068 8.27426 59.7995C8.23314 60.0922 8.30049 60.3899 8.46354 60.6361C8.62659 60.8823 8.87401 61.06 9.15892 61.1355C9.44383 61.2109 9.74643 61.1789 10.0094 61.0455Z" fill="#FFB8B8"/>
<path d="M11.7857 45.6292C13.2974 45.6292 14.5228 44.3999 14.5228 42.8834C14.5228 41.367 13.2974 40.1377 11.7857 40.1377C10.274 40.1377 9.04858 41.367 9.04858 42.8834C9.04858 44.3999 10.274 45.6292 11.7857 45.6292Z" fill="#FFB8B8"/>
<path d="M12.301 55.5877C12.1915 55.5877 12.0849 55.5516 11.9978 55.485C11.9106 55.4183 11.8477 55.3249 11.8186 55.2189C11.5993 54.4197 11.0288 53.0683 10.1228 51.2023C9.91844 50.7804 9.80525 50.32 9.7907 49.8512C9.77615 49.3824 9.86057 48.9158 10.0384 48.4821C10.2163 48.0483 10.4835 47.6572 10.8227 47.3343C11.1618 47.0115 11.5652 46.7642 12.0063 46.6087C12.4243 46.4606 12.8677 46.3982 13.3102 46.425C13.7528 46.4519 14.1854 46.5675 14.5826 46.765C14.9798 46.9625 15.3335 47.2379 15.6227 47.575C15.9119 47.912 16.1308 48.3038 16.2664 48.7272C16.9686 50.9356 16.9347 53.3011 16.8875 54.2155C16.8816 54.3257 16.8399 54.4308 16.7688 54.5149C16.6977 54.599 16.601 54.6574 16.4937 54.6811L12.4086 55.576C12.3733 55.5838 12.3372 55.5877 12.301 55.5877Z" fill="#FF6584"/>
<path d="M16.257 81.6605H17.6231L18.2731 76.374L16.2567 76.3741L16.257 81.6605Z" fill="#FFB8B8"/>
<path d="M20.2581 82.9336L15.9642 82.9338L15.9641 81.2696L18.599 81.2694C18.8169 81.2694 19.0326 81.3125 19.2339 81.3961C19.4352 81.4797 19.6181 81.6023 19.7722 81.7568C19.9262 81.9114 20.0485 82.0948 20.1318 82.2967C20.2152 82.4986 20.2581 82.715 20.2581 82.9336Z" fill="#2F2E41"/>
<path d="M2.59506 79.8845L3.79238 80.5447L6.90094 76.2265L5.13402 75.252L2.59506 79.8845Z" fill="#FFB8B8"/>
<path d="M5.49014 82.9336L1.72736 80.8584L2.52663 79.4L4.83561 80.6735C5.22118 80.8861 5.50675 81.2437 5.6295 81.6675C5.75225 82.0914 5.70212 82.5468 5.49014 82.9336Z" fill="#2F2E41"/>
<path d="M16.1931 78.7267C16.0714 78.7266 15.9538 78.6821 15.8624 78.6015C15.771 78.5208 15.7119 78.4095 15.6963 78.2884L13.9876 65.0803C13.9801 65.0219 13.9543 64.9674 13.914 64.9245C13.8737 64.8817 13.821 64.8527 13.7633 64.8417C13.7056 64.8307 13.6459 64.8383 13.5927 64.8634C13.5396 64.8885 13.4957 64.9297 13.4674 64.9813L6.34636 77.9415C6.2876 78.0473 6.19294 78.1284 6.07959 78.1702C5.96623 78.2119 5.84171 78.2114 5.72867 78.1689L4.1765 77.5756C4.11407 77.5518 4.05702 77.5157 4.0087 77.4694C3.96038 77.4231 3.92177 77.3676 3.89513 77.3061C3.8685 77.2447 3.85437 77.1785 3.85358 77.1115C3.85279 77.0445 3.86536 76.978 3.89055 76.9159L8.82345 64.7599C8.83594 64.729 8.84441 64.6967 8.84864 64.6636C9.51678 59.4761 11.2167 56.8381 11.7218 56.1531C11.7587 56.1028 11.783 56.0443 11.7926 55.9825C11.8022 55.9208 11.7969 55.8577 11.7771 55.7984L11.7076 55.5895C11.6799 55.5065 11.6742 55.4178 11.6911 55.332C11.7081 55.2462 11.747 55.1663 11.8041 55.1002C13.6241 53.0207 16.7963 54.1554 16.8282 54.1671L16.844 54.173L16.854 54.1866C20.411 59.08 19.0958 74.9737 18.7961 78.1101C18.7849 78.228 18.7325 78.3381 18.6482 78.421C18.5639 78.5038 18.4531 78.5541 18.3354 78.5629L16.2321 78.7253C16.219 78.7263 16.206 78.7267 16.1931 78.7267Z" fill="#2F2E41"/>
<path d="M22.4266 46.0725C22.413 46.1328 22.4041 46.1941 22.4 46.2559L17.6127 49.0263L16.4491 48.3543L15.2086 49.9834L17.1533 51.3738C17.3104 51.4861 17.4996 51.5443 17.6925 51.5396C17.8854 51.5349 18.0715 51.4675 18.223 51.3477L23.1595 47.441C23.3822 47.5237 23.6249 47.5365 23.855 47.4775C24.0852 47.4185 24.292 47.2907 24.448 47.1109C24.6039 46.9312 24.7016 46.708 24.7281 46.4712C24.7546 46.2344 24.7085 45.9951 24.5961 45.7852C24.4837 45.5752 24.3102 45.4046 24.0988 45.296C23.8873 45.1874 23.6479 45.1459 23.4124 45.1771C23.1769 45.2083 22.9564 45.3107 22.7804 45.4706C22.6043 45.6306 22.4809 45.8405 22.4266 46.0725Z" fill="#FFB8B8"/>
<path d="M17.4527 49.1574L15.9054 51.169C15.8614 51.2262 15.8056 51.2733 15.7418 51.3069C15.678 51.3406 15.6078 51.36 15.5358 51.364C15.4639 51.368 15.3919 51.3563 15.3248 51.3298C15.2578 51.3034 15.1972 51.2627 15.1472 51.2107L13.3956 49.3861C13.105 49.1585 12.9162 48.8245 12.8706 48.4575C12.825 48.0905 12.9264 47.7203 13.1525 47.4281C13.3786 47.1359 13.711 46.9456 14.0767 46.8989C14.4425 46.8522 14.8118 46.9528 15.1037 47.1788L17.3005 48.4111C17.3634 48.4464 17.418 48.4949 17.4605 48.5532C17.503 48.6116 17.5325 48.6785 17.5469 48.7493C17.5614 48.8201 17.5604 48.8932 17.5442 48.9637C17.5279 49.0341 17.4967 49.1002 17.4527 49.1574Z" fill="#FF6584"/>
<path d="M11.4558 52.6524L8.96334 52.2009C8.89242 52.1881 8.8251 52.1601 8.76595 52.1188C8.7068 52.0775 8.65722 52.0239 8.62059 51.9616C8.58396 51.8994 8.56113 51.8299 8.55366 51.758C8.5462 51.6861 8.55427 51.6134 8.57732 51.5449L9.38534 49.1451C9.4529 48.7814 9.66144 48.4595 9.96525 48.2499C10.2691 48.0403 10.6433 47.9601 11.006 48.0269C11.3687 48.0937 11.6901 48.302 11.8999 48.6062C12.1097 48.9104 12.1906 49.2856 12.125 49.6496L12.0462 52.1733C12.0439 52.2455 12.0261 52.3164 11.9941 52.3812C11.962 52.4459 11.9164 52.503 11.8604 52.5484C11.8044 52.5939 11.7392 52.6267 11.6694 52.6447C11.5996 52.6626 11.5268 52.6653 11.4558 52.6524Z" fill="#FF6584"/>
<path d="M12.2189 42.2521C12.9224 42.7351 13.8462 43.2316 14.5647 42.7173C14.7894 42.5456 14.9527 42.3055 15.0301 42.0329C15.1074 41.7604 15.0947 41.47 14.9938 41.2053C14.6497 40.2183 13.7045 39.7838 12.8006 39.4508C11.6255 39.0178 10.346 38.6733 9.13287 38.9834C7.91978 39.2935 6.84768 40.4717 7.06667 41.7081C7.24277 42.7024 8.17775 43.5298 8.04502 44.5308C7.91143 45.5383 6.78195 46.0686 5.7848 46.2487C4.78765 46.4288 3.67182 46.4866 2.95521 47.2051C2.04103 48.1217 2.26932 49.7599 3.12951 50.7276C3.98971 51.6953 5.2878 52.134 6.54564 52.4322C8.21221 52.8273 10.0147 53.0349 11.5975 52.3792C13.1804 51.7235 14.4121 49.9584 13.9536 48.3033C13.7599 47.6042 13.3036 47.0133 12.8627 46.4381C12.4218 45.8629 11.9753 45.2614 11.8071 44.5556C11.6669 43.9675 11.7707 43.2847 12.1595 42.8436C12.2302 42.7663 12.2747 42.6686 12.2866 42.5645C12.2985 42.4603 12.2772 42.355 12.2257 42.2638L12.2189 42.2521Z" fill="#2F2E41"/>
<path d="M22.6513 82.9996H0.118593C0.0871402 82.9996 0.0569755 82.9871 0.034735 82.9648C0.0124945 82.9425 0 82.9122 0 82.8807C0 82.8491 0.0124945 82.8189 0.034735 82.7966C0.0569755 82.7743 0.0871402 82.7617 0.118593 82.7617H22.6513C22.6827 82.7617 22.7129 82.7743 22.7351 82.7966C22.7574 82.8189 22.7698 82.8491 22.7698 82.8807C22.7698 82.9122 22.7574 82.9425 22.7351 82.9648C22.7129 82.9871 22.6827 82.9996 22.6513 82.9996Z" fill="#CCCCCC"/>
</g>
<defs>
<clipPath id="clip0_202_1688">
<rect width="118" height="83" fill="white"/>
</clipPath>
</defs>
</svg>
