<svg width="124" height="71" viewBox="0 0 124 71" fill="none" xmlns="http://www.w3.org/2000/svg">
<g clip-path="url(#clip0_237_2)">
<path d="M107.409 27.6954L104.16 28.9113L104.435 25.0931L106.689 24.8468C106.511 25.8163 106.772 26.7647 107.409 27.6954Z" fill="#FFB8B8"/>
<path d="M116.164 68.2911L114.929 68.7211L112.977 64.5186L114.799 63.8838L116.164 68.2911Z" fill="#FFB9B9"/>
<path d="M111.68 69.6859C111.677 69.8192 111.695 69.9517 111.735 70.0779C111.771 70.1958 111.852 70.2931 111.96 70.3483C112.068 70.4036 112.193 70.4122 112.309 70.3724L116.279 68.9978C116.318 68.9842 116.354 68.9629 116.386 68.9351C116.417 68.9073 116.443 68.8736 116.462 68.8359C116.48 68.7981 116.492 68.7571 116.495 68.7151C116.498 68.6731 116.494 68.631 116.481 68.5912L116.429 68.4222C116.429 68.4222 116.467 67.8459 115.867 67.3593C115.867 67.3593 115.517 68.0239 114.527 67.5156L114.177 67.1818L112.948 68.9362L112.094 69.3554C111.908 69.4472 111.726 69.4786 111.68 69.6855L111.68 69.6859Z" fill="#090814"/>
<path d="M104.368 69.565H102.953L102.28 64.9058H104.368L104.368 69.565Z" fill="#FFB9B9"/>
<path d="M99.4745 69.4147C99.4301 69.542 99.4074 69.6763 99.4075 69.8118C99.4103 69.941 99.4622 70.0637 99.5518 70.1531C99.6414 70.2425 99.7615 70.2912 99.8855 70.2884H104.247C104.332 70.2903 104.414 70.2572 104.475 70.1962C104.536 70.1352 104.571 70.0514 104.573 69.9632V69.7821C104.573 69.7821 104.789 69.2379 104.345 68.567C104.345 68.567 103.793 69.0922 102.968 68.2696L102.725 67.8301L100.963 69.1144L99.9873 69.2338C99.7737 69.2601 99.5844 69.2298 99.4745 69.4142V69.4147Z" fill="#090814"/>
<path d="M101.579 40.4106L100.548 42.666L102.301 66.0786H104.493L105.395 50.7208L113.263 66.0786H115.953L111.892 55.1238L109.108 40.8403L101.579 40.4106Z" fill="#090814"/>
<path d="M106.946 26.2583L104.221 26.442L103.385 27.5771L101.135 28.6974L101.624 35.7255L101.379 40.8499L101.715 40.8397C104.116 40.7537 106.508 41.1851 108.741 42.1069C109.312 42.3465 109.911 42.4802 110.427 42.3456C110.427 42.3456 110.231 41.5308 110.036 41.3271C109.84 41.1234 109.742 40.9549 109.84 40.8355C109.938 40.716 110.134 40.6141 109.938 40.4104C109.821 40.287 109.751 40.1233 109.742 39.9501L109.156 35.4194L110.329 29.0024L107.884 27.5765L106.946 26.2583Z" fill="#9A0000"/>
<path d="M111.774 34.8321L111.7 40.8428L110.264 46.2009L109.116 45.7549L109.626 40.8436L109.559 34.1973L111.774 34.8321Z" fill="#FFB9B9"/>
<path d="M110.259 47.0648C110.394 46.2943 110.147 45.6023 109.708 45.519C109.268 45.4357 108.803 45.9927 108.668 46.7632C108.534 47.5336 108.781 48.2257 109.22 48.309C109.659 48.3923 110.124 47.8353 110.259 47.0648Z" fill="#FFB9B9"/>
<path d="M109.742 28.6973C109.742 28.6973 111.362 28.9587 111.384 30.4068C111.405 31.8549 112.97 34.1975 111.992 36.031L109.449 36.4384L108.08 31.2437" fill="#9A0000"/>
<path d="M102.346 33.7738L99.1167 38.7564L95.0928 42.415L94.368 41.3866L97.382 37.5721L100.828 31.9775L102.346 33.7738Z" fill="#FFB9B9"/>
<path d="M94.6335 43.1353C95.1524 42.5683 95.311 41.8486 94.9877 41.5277C94.6644 41.2069 93.9817 41.4064 93.4628 41.9734C92.9439 42.5404 92.7854 43.2601 93.1087 43.5809C93.4319 43.9018 94.1146 43.7023 94.6335 43.1353Z" fill="#FFB9B9"/>
<path d="M103.88 27.4836C103.88 27.4836 105.097 28.6281 104.351 29.8508C103.606 31.0736 103.68 33.9263 101.896 34.9001L99.5554 33.7875C99.7526 31.7788 99.8676 29.6962 101.148 28.6623L103.905 27.2573" fill="#9A0000"/>
<path d="M105.32 25.5275C106.663 25.5275 107.753 24.393 107.753 22.9935C107.753 21.594 106.663 20.4595 105.32 20.4595C103.976 20.4595 102.886 21.594 102.886 22.9935C102.886 24.393 103.976 25.5275 105.32 25.5275Z" fill="#FFB9B9"/>
<path d="M107.107 25.0755C107.241 25.0993 107.398 24.761 107.548 24.4315C107.863 23.7417 108.063 23.3032 108.078 22.6834C108.091 22.1551 107.951 22.2938 107.813 21.1193C107.768 20.732 107.133 20.7327 107.003 20.5488C106.785 20.2381 107.12 20.11 106.577 19.9233C105.559 19.5737 105.098 20.1168 104.452 20.1636C104.435 20.1648 104.115 20.4912 103.936 20.5081C103.622 20.5377 103.17 20.4868 102.967 19.9892C102.777 19.5239 102.651 20.8836 102.821 21.0519C102.969 21.2144 103.103 21.391 103.219 21.5795C103.227 21.6089 102.629 20.9197 102.529 21.2037C102.458 21.4081 102.684 22.46 102.866 22.4995C103.019 22.5325 103.392 22.0086 103.308 22.2234C103.113 22.7218 104.287 23.0398 105.693 22.0398C105.743 22.0043 105.696 22.0609 105.87 22.4998C106.089 23.0533 106.138 23.0834 106.135 23.2358C106.126 23.5658 105.888 23.6631 105.958 23.8799C105.993 23.9696 106.055 24.0451 106.135 24.0949C106.215 24.1447 106.308 24.1661 106.4 24.1559C106.587 24.1159 106.618 23.8756 106.753 23.8799C106.869 23.8835 107.006 24.0649 107.019 24.2479C107.044 24.6336 106.496 24.7395 106.4 25.2599C106.346 25.5537 106.984 25.054 107.107 25.0763L107.107 25.0755Z" fill="#090814"/>
<path d="M87.8441 70.4041H66.9361C65.4283 70.4024 63.9827 69.7778 62.9164 68.6675C61.8502 67.5571 61.2505 66.0517 61.2488 64.4814V6.92273C61.2505 5.35246 61.8502 3.84701 62.9164 2.73666C63.9827 1.62631 65.4283 1.00175 66.9361 1L87.8441 1C89.352 1.00175 90.7976 1.62631 91.8638 2.73666C92.93 3.84701 93.5297 5.35246 93.5314 6.92273C93.9206 30.0365 94.5843 55.9207 93.5314 64.4816C93.5297 66.0518 92.9299 67.5572 91.8637 68.6675C90.7975 69.7778 89.3519 70.4024 87.8441 70.4041Z" fill="#090814"/>
<path d="M93.8226 22.1719C93.7588 22.1719 93.6976 22.1983 93.6525 22.2453C93.6074 22.2923 93.582 22.356 93.582 22.4225V30.4403C93.5813 30.4736 93.5871 30.5067 93.5989 30.5376C93.6107 30.5686 93.6284 30.5968 93.6508 30.6206C93.6732 30.6444 93.6999 30.6632 93.7294 30.6761C93.7589 30.689 93.7906 30.6957 93.8225 30.6957C93.8545 30.6957 93.8862 30.689 93.9157 30.6761C93.9452 30.6632 93.9719 30.6444 93.9943 30.6206C94.0167 30.5968 94.0343 30.5686 94.0462 30.5376C94.058 30.5067 94.0637 30.4736 94.0631 30.4403V22.4225C94.0631 22.356 94.0377 22.2923 93.9926 22.2454C93.9475 22.1984 93.8864 22.1719 93.8226 22.1719Z" fill="#090814"/>
<path d="M92.99 6.92295V64.4807C92.99 65.8416 92.4929 67.1516 91.5995 68.1448C90.7061 69.138 89.4833 69.74 88.1793 69.8288H88.178C88.1383 69.8313 88.0987 69.8338 88.0578 69.835C87.9872 69.8388 87.9158 69.8401 87.8437 69.8401C87.8437 69.8401 87.5791 69.8201 87.0954 69.7824C86.607 69.7449 85.8962 69.6885 85.0094 69.6146C84.7436 69.5933 84.4629 69.5699 84.1674 69.5444C83.5779 69.4943 82.9307 69.4392 82.2363 69.3765C81.9596 69.3528 81.6733 69.3264 81.381 69.3002C79.8869 69.1661 78.2136 69.0095 76.4487 68.8318C76.1504 68.803 75.8497 68.773 75.5465 68.7417C75.4671 68.7325 61.7901 65.1525 61.7901 64.481V6.92295C61.7901 6.21911 61.9231 5.52214 62.1817 4.87186C62.4404 4.22158 62.8195 3.63073 63.2974 3.13304C63.7753 2.63535 64.3427 2.24058 64.9671 1.97127C65.5915 1.70196 66.2608 1.56339 66.9367 1.56348H70.0093C70.2452 1.56571 70.4717 1.66041 70.6435 1.82872C70.8153 1.99702 70.92 2.22657 70.9366 2.47163C70.9402 2.50542 70.9438 2.5393 70.9498 2.5731C70.9988 2.82154 71.1296 3.04436 71.3196 3.20309C71.5096 3.36181 71.7468 3.44649 71.9903 3.4425H82.7899C83.0334 3.44649 83.2706 3.36181 83.4606 3.20309C83.6505 3.04436 83.7813 2.82154 83.8303 2.5731C83.8363 2.5393 83.84 2.50542 83.8436 2.47163C83.8602 2.22651 83.9649 1.99691 84.1368 1.82859C84.3087 1.66028 84.5352 1.56562 84.7712 1.56348H87.8436C88.5194 1.5634 89.1887 1.70198 89.8131 1.97129C90.4375 2.2406 91.0049 2.63536 91.4828 3.13304C91.9607 3.63072 92.3397 4.22156 92.5983 4.87183C92.857 5.52209 92.99 6.21904 92.9899 6.92286L92.99 6.92295Z" fill="white"/>
<path d="M61.1286 16.1587C61.0648 16.1587 61.0036 16.1852 60.9585 16.2321C60.9134 16.2791 60.888 16.3428 60.888 16.4093V18.4136C60.8874 18.447 60.8931 18.48 60.905 18.511C60.9168 18.542 60.9344 18.5702 60.9568 18.5939C60.9792 18.6177 61.0059 18.6366 61.0354 18.6495C61.0649 18.6624 61.0966 18.669 61.1286 18.669C61.1606 18.669 61.1922 18.6624 61.2217 18.6495C61.2512 18.6366 61.2779 18.6177 61.3003 18.5939C61.3227 18.5702 61.3404 18.542 61.3522 18.511C61.364 18.48 61.3698 18.447 61.3692 18.4136V16.4092C61.3691 16.3428 61.3437 16.2791 61.2986 16.2321C61.2535 16.1852 61.1924 16.1588 61.1286 16.1587Z" fill="#090814"/>
<path d="M61.1286 22.1719C61.0648 22.1719 61.0036 22.1983 60.9585 22.2453C60.9134 22.2923 60.888 22.356 60.888 22.4225V26.3061C60.8874 26.3394 60.8931 26.3725 60.905 26.4035C60.9168 26.4344 60.9344 26.4626 60.9568 26.4864C60.9792 26.5102 61.0059 26.5291 61.0354 26.542C61.0649 26.5549 61.0966 26.5615 61.1286 26.5615C61.1606 26.5615 61.1922 26.5549 61.2217 26.542C61.2512 26.5291 61.2779 26.5102 61.3003 26.4864C61.3227 26.4626 61.3404 26.4344 61.3522 26.4035C61.364 26.3725 61.3698 26.3394 61.3692 26.3061V22.4225C61.3691 22.356 61.3438 22.2923 61.2987 22.2454C61.2536 22.1984 61.1924 22.1719 61.1286 22.1719Z" fill="#090814"/>
<path d="M61.1286 27.6841C61.0649 27.6842 61.0038 27.7106 60.9587 27.7575C60.9136 27.8045 60.8883 27.8681 60.8882 27.9345V31.8187C60.8876 31.852 60.8933 31.8851 60.9051 31.9161C60.917 31.947 60.9346 31.9752 60.957 31.999C60.9794 32.0228 61.0061 32.0417 61.0356 32.0546C61.0651 32.0674 61.0968 32.0741 61.1288 32.0741C61.1607 32.0741 61.1924 32.0674 61.2219 32.0546C61.2514 32.0417 61.2781 32.0228 61.3005 31.999C61.3229 31.9752 61.3406 31.947 61.3524 31.9161C61.3642 31.8851 61.37 31.852 61.3693 31.8187V27.9345C61.3692 27.8681 61.3438 27.8044 61.2987 27.7574C61.2536 27.7105 61.1924 27.6841 61.1286 27.6841Z" fill="#090814"/>
<path d="M69.9433 2.44092H65.3063C65.2912 2.44092 65.279 2.45366 65.279 2.46938V3.03888C65.279 3.05461 65.2912 3.06735 65.3063 3.06735H69.9433C69.9584 3.06735 69.9706 3.05461 69.9706 3.03888V2.46938C69.9706 2.45366 69.9584 2.44092 69.9433 2.44092Z" fill="#E6E6E6"/>
<path d="M85.5314 3.06712C85.7972 3.06712 86.0126 2.84278 86.0126 2.56603C86.0126 2.28929 85.7972 2.06494 85.5314 2.06494C85.2657 2.06494 85.0503 2.28929 85.0503 2.56603C85.0503 2.84278 85.2657 3.06712 85.5314 3.06712Z" fill="#E6E6E6"/>
<path d="M86.8548 3.06712C87.1205 3.06712 87.3359 2.84278 87.3359 2.56603C87.3359 2.28929 87.1205 2.06494 86.8548 2.06494C86.589 2.06494 86.3736 2.28929 86.3736 2.56603C86.3736 2.84278 86.589 3.06712 86.8548 3.06712Z" fill="#E6E6E6"/>
<path d="M88.178 3.06712C88.4438 3.06712 88.6592 2.84278 88.6592 2.56603C88.6592 2.28929 88.4438 2.06494 88.178 2.06494C87.9123 2.06494 87.6968 2.28929 87.6968 2.56603C87.6968 2.84278 87.9123 3.06712 88.178 3.06712Z" fill="#E6E6E6"/>
<path d="M88.331 47.1085C88.331 41.3969 83.6952 38.2544 78.3998 36.7662C71.6102 34.8581 66.6382 38.7191 68.4684 47.1085C69.6837 52.6784 75.8518 60.9909 78.3998 55.9329C81.3153 50.1447 88.331 52.8204 88.331 47.1085Z" fill="#F2F2F2"/>
<path d="M53.4799 70.4195C53.4789 70.4423 53.4824 70.465 53.4899 70.4865C53.4975 70.5079 53.509 70.5276 53.5239 70.5443C53.5387 70.5611 53.5566 70.5747 53.5765 70.5842C53.5964 70.5938 53.6179 70.5992 53.6398 70.6001H123.84C123.884 70.5964 123.924 70.5758 123.954 70.5423C123.983 70.5088 124 70.465 124 70.4194C124 70.3739 123.983 70.33 123.954 70.2966C123.924 70.2631 123.884 70.2425 123.84 70.2388H53.6398C53.6179 70.2397 53.5964 70.2451 53.5765 70.2546C53.5566 70.2642 53.5387 70.2778 53.5238 70.2946C53.509 70.3113 53.4974 70.331 53.4899 70.3525C53.4823 70.3739 53.4789 70.3967 53.4799 70.4195Z" fill="#E6E6E6"/>
<path d="M74.9864 46.0891L73.7867 45.4973C74.2788 46.2125 74.7027 47.3294 74.9298 48.2181C75.3141 47.3902 75.9338 46.3773 76.547 45.7722L75.2791 46.1119C76.0604 42.1241 78.9992 39.2617 82.3644 39.2617L82.412 39.1177C78.8969 39.1172 75.7842 41.9404 74.9864 46.0891Z" fill="#090814"/>
<path d="M80.5083 52.1652H72.9277C72.773 52.1652 72.6247 52.1012 72.5154 51.9873C72.406 51.8734 72.3446 51.719 72.3446 51.5579C72.3446 51.3969 72.406 51.2424 72.5154 51.1285C72.6247 51.0147 72.773 50.9507 72.9277 50.9507H80.5081C80.6627 50.9507 80.811 51.0147 80.9204 51.1285C81.0297 51.2424 81.0912 51.3969 81.0912 51.5579C81.0912 51.719 81.0297 51.8734 80.9204 51.9873C80.811 52.1012 80.6627 52.1652 80.5081 52.1652H80.5083Z" fill="#9A0000"/>
<path d="M87.5945 20.6935V36.7854C87.5937 37.4696 87.3324 38.1256 86.8678 38.6094C86.4032 39.0932 85.7733 39.3653 85.1163 39.3661H69.6639C69.0069 39.3653 68.377 39.0932 67.9124 38.6094C67.4478 38.1256 67.1865 37.4696 67.1858 36.7854V20.6935C67.1865 20.0093 67.4478 19.3534 67.9124 18.8695C68.377 18.3857 69.0069 18.1136 69.6639 18.1128H85.1163C85.7733 18.1136 86.4032 18.3857 86.8678 18.8695C87.3324 19.3534 87.5937 20.0093 87.5945 20.6935ZM85.1163 39.0626C85.4035 39.0626 85.6878 39.0036 85.9531 38.8892C86.2184 38.7748 86.4595 38.607 86.6626 38.3956C86.8656 38.1841 87.0267 37.933 87.1366 37.6568C87.2465 37.3805 87.303 37.0843 87.303 36.7853V28.6725C87.303 27.3257 87.0483 25.992 86.5534 24.7476C86.0584 23.5033 85.333 22.3727 84.4184 21.4203C83.5039 20.4679 82.4182 19.7125 81.2233 19.197C80.0284 18.6816 78.7478 18.4164 77.4544 18.4164H69.6639C69.084 18.4164 68.5278 18.6563 68.1177 19.0834C67.7076 19.5104 67.4772 20.0897 67.4772 20.6936V36.7854C67.4772 37.3893 67.7076 37.9686 68.1177 38.3956C68.5278 38.8227 69.084 39.0626 69.6639 39.0626H85.1163V39.0626Z" fill="#090814"/>
<path d="M79.4471 24.685H74.4586C74.4283 24.6856 74.3981 24.68 74.3699 24.6683C74.3417 24.6566 74.316 24.6392 74.2944 24.6171C74.2727 24.595 74.2555 24.5686 74.2438 24.5395C74.232 24.5104 74.226 24.4791 74.226 24.4475C74.226 24.4159 74.232 24.3847 74.2438 24.3555C74.2555 24.3264 74.2727 24.3 74.2944 24.2779C74.316 24.2558 74.3417 24.2384 74.3699 24.2267C74.3981 24.2151 74.4283 24.2094 74.4586 24.21H79.4471C79.5068 24.2112 79.5637 24.2368 79.6055 24.2812C79.6473 24.3256 79.6707 24.3853 79.6707 24.4475C79.6707 24.5097 79.6473 24.5694 79.6055 24.6138C79.5637 24.6582 79.5068 24.6838 79.4471 24.685Z" fill="#9A0000"/>
<path d="M79.4471 29.75H74.4586C74.4283 29.7506 74.3981 29.7449 74.3699 29.7332C74.3417 29.7216 74.316 29.7042 74.2944 29.6821C74.2727 29.66 74.2555 29.6336 74.2438 29.6044C74.232 29.5753 74.226 29.544 74.226 29.5125C74.226 29.4809 74.232 29.4496 74.2438 29.4205C74.2555 29.3913 74.2727 29.365 74.2944 29.3428C74.316 29.3207 74.3417 29.3033 74.3699 29.2917C74.3981 29.28 74.4283 29.2743 74.4586 29.2749H79.4471C79.5068 29.2762 79.5637 29.3017 79.6055 29.3461C79.6473 29.3905 79.6707 29.4503 79.6707 29.5125C79.6707 29.5746 79.6473 29.6344 79.6055 29.6788C79.5637 29.7232 79.5068 29.7487 79.4471 29.75Z" fill="#9A0000"/>
<path d="M76.969 36.7334H71.9804C71.9501 36.734 71.92 36.7283 71.8918 36.7166C71.8636 36.705 71.8379 36.6876 71.8162 36.6655C71.7946 36.6434 71.7774 36.617 71.7656 36.5878C71.7539 36.5587 71.7478 36.5274 71.7478 36.4959C71.7478 36.4643 71.7539 36.433 71.7656 36.4039C71.7774 36.3747 71.7946 36.3484 71.8162 36.3262C71.8379 36.3041 71.8636 36.2867 71.8918 36.2751C71.92 36.2634 71.9501 36.2577 71.9804 36.2583H76.969C77.0287 36.2596 77.0855 36.2851 77.1274 36.3295C77.1692 36.3739 77.1926 36.4337 77.1926 36.4959C77.1926 36.558 77.1692 36.6178 77.1274 36.6622C77.0855 36.7066 77.0287 36.7321 76.969 36.7334Z" fill="#9A0000"/>
<path d="M82.1241 27.2192H71.7817C71.7513 27.2198 71.7212 27.2141 71.693 27.2025C71.6648 27.1908 71.6391 27.1734 71.6175 27.1513C71.5958 27.1292 71.5786 27.1028 71.5669 27.0737C71.5551 27.0446 71.5491 27.0133 71.5491 26.9817C71.5491 26.9501 71.5551 26.9188 71.5669 26.8897C71.5786 26.8606 71.5958 26.8342 71.6175 26.8121C71.6391 26.79 71.6648 26.7726 71.693 26.7609C71.7212 26.7493 71.7513 26.7436 71.7817 26.7442H82.1241C82.1838 26.7454 82.2406 26.771 82.2824 26.8154C82.3243 26.8598 82.3477 26.9195 82.3477 26.9817C82.3477 27.0439 82.3243 27.1036 82.2824 27.148C82.2406 27.1924 82.1838 27.218 82.1241 27.2192Z" fill="#9A0000"/>
</g>
<g clip-path="url(#clip1_237_2)">
<path d="M51.2683 69.6H4.20651C3.09102 69.5989 2.02156 69.1962 1.23279 68.4801C0.444026 67.764 0.000391383 66.7931 -0.000762939 65.7804V3.81961C0.000391616 2.80683 0.444099 1.83583 1.23298 1.11973C2.02186 0.403623 3.09146 0.000920173 4.20704 0H51.2683C52.3838 0.00104796 53.4532 0.403807 54.242 1.1199C55.0308 1.83599 55.4744 2.80691 55.4756 3.81961V65.7804C55.4744 66.7931 55.0308 67.764 54.242 68.4801C53.4532 69.1962 52.3838 69.5989 51.2683 69.6Z" fill="#090814"/>
<path d="M51.3745 67.1801H4.14793C3.80409 67.1798 3.47445 67.0556 3.23133 66.8349C2.9882 66.6141 2.85144 66.3149 2.85104 66.0027V3.63149C2.85144 3.31934 2.9882 3.02007 3.23133 2.79935C3.47445 2.57862 3.80409 2.45446 4.14793 2.4541H51.3745C51.7184 2.45431 52.0482 2.5784 52.2915 2.79914C52.5347 3.01988 52.6716 3.31924 52.672 3.63149V66.0027C52.6716 66.315 52.5347 66.6143 52.2915 66.8351C52.0482 67.0558 51.7184 67.1799 51.3745 67.1801Z" fill="white"/>
<path d="M27.738 1.68801C28.0237 1.68801 28.2554 1.4777 28.2554 1.21827C28.2554 0.958845 28.0237 0.748535 27.738 0.748535C27.4522 0.748535 27.2206 0.958845 27.2206 1.21827C27.2206 1.4777 27.4522 1.68801 27.738 1.68801Z" fill="white"/>
<path d="M17.015 4.53613H6.4758C6.12338 4.53613 5.83768 4.79551 5.83768 5.11546V5.56579C5.83768 5.88575 6.12338 6.14512 6.4758 6.14512H17.015C17.3674 6.14512 17.6531 5.88575 17.6531 5.56579V5.11546C17.6531 4.79551 17.3674 4.53613 17.015 4.53613Z" fill="#E6E6E6"/>
<path d="M37.6273 42.8445L46.1581 55.5834C46.2039 55.6529 46.2183 55.7367 46.1984 55.8179C46.1785 55.8991 46.1258 55.9714 46.051 56.0202C45.9763 56.0689 45.8851 56.0903 45.7962 56.0801C45.7072 56.0698 45.6272 56.0287 45.5725 55.965L35.9131 44.5618L37.6274 42.8443L37.6273 42.8445Z" fill="#9A0000"/>
<path d="M38.1483 42.1072C38.5456 43.3586 37.8959 44.6639 36.6963 45.0214C35.4968 45.3789 34.4423 45.4093 34.0446 44.1573C33.7567 43.2505 33.8141 42.7404 33.5593 42.2374C33.0635 41.2635 32.2431 40.0621 33.0349 39.826C33.5895 39.6608 34.6357 39.8684 35.6458 40.2622C36.8156 40.7209 37.9342 41.433 38.1481 42.1071L38.1483 42.1072Z" fill="#9A0000"/>
<path d="M35.6037 40.2559C35.6027 40.6679 35.4555 41.0736 35.1842 41.412C34.9129 41.7504 34.5322 42.0031 34.0993 42.1323C33.9123 42.1888 33.7181 42.22 33.5233 42.2248C33.029 41.2539 32.2111 40.0563 33.0005 39.821C33.5535 39.6563 34.5965 39.8632 35.6036 40.2558L35.6037 40.2559Z" fill="#3F3D56"/>
<path d="M47.9453 21.5722C48.8851 21.5722 49.647 20.8805 49.647 20.0273C49.647 19.1741 48.8851 18.4824 47.9453 18.4824C47.0055 18.4824 46.2436 19.1741 46.2436 20.0273C46.2436 20.8805 47.0055 21.5722 47.9453 21.5722Z" fill="#090814"/>
<path d="M47.9453 18.0961C48.8851 18.0961 49.647 17.4044 49.647 16.5512C49.647 15.698 48.8851 15.0063 47.9453 15.0063C47.0055 15.0063 46.2436 15.698 46.2436 16.5512C46.2436 17.4044 47.0055 18.0961 47.9453 18.0961Z" fill="#D6D6E3"/>
<path d="M47.9453 14.6205C48.8851 14.6205 49.647 13.9289 49.647 13.0756C49.647 12.2224 48.8851 11.5308 47.9453 11.5308C47.0055 11.5308 46.2436 12.2224 46.2436 13.0756C46.2436 13.9289 47.0055 14.6205 47.9453 14.6205Z" fill="#E6E6E6"/>
<path d="M47.9453 11.1444C48.8851 11.1444 49.647 10.4528 49.647 9.59956C49.647 8.74635 48.8851 8.05469 47.9453 8.05469C47.0055 8.05469 46.2436 8.74635 46.2436 9.59956C46.2436 10.4528 47.0055 11.1444 47.9453 11.1444Z" fill="#F2F2F2"/>
<path d="M47.9453 7.66837C48.8851 7.66837 49.647 6.9767 49.647 6.12349C49.647 5.27028 48.8851 4.57861 47.9453 4.57861C47.0055 4.57861 46.2436 5.27028 46.2436 6.12349C46.2436 6.9767 47.0055 7.66837 47.9453 7.66837Z" fill="#9A0000"/>
<path d="M7.98306 60.6436C8.40737 60.6436 8.82216 60.7578 9.17497 60.9718C9.52777 61.1858 9.80275 61.49 9.96513 61.8459C10.1275 62.2018 10.17 62.5934 10.0872 62.9712C10.0044 63.3491 9.80011 63.6961 9.50007 63.9685C9.20003 64.2409 8.81776 64.4264 8.4016 64.5015C7.98544 64.5767 7.55407 64.5381 7.16206 64.3907C6.77004 64.2433 6.43498 63.9936 6.19924 63.6733C5.9635 63.353 5.83768 62.9765 5.83768 62.5913C5.83768 62.0747 6.06371 61.5793 6.46604 61.214C6.86838 60.8488 7.41407 60.6436 7.98306 60.6436Z" fill="#D6D6E3"/>
<path d="M7.98317 61.457C8.23031 61.457 8.4719 61.5236 8.67739 61.6482C8.88287 61.7729 9.04303 61.95 9.13761 62.1573C9.23219 62.3646 9.25693 62.5927 9.20872 62.8128C9.1605 63.0328 9.04149 63.235 8.86674 63.3936C8.69199 63.5523 8.46934 63.6603 8.22695 63.7041C7.98456 63.7479 7.73331 63.7254 7.50498 63.6395C7.27666 63.5537 7.0815 63.4083 6.9442 63.2217C6.8069 63.0352 6.73361 62.8158 6.73361 62.5915C6.73361 62.2906 6.86526 62.002 7.0996 61.7893C7.33394 61.5766 7.65177 61.457 7.98317 61.457Z" fill="#E6E6E6"/>
<path d="M8.00667 61.7563C8.19319 61.7563 8.37552 61.8066 8.5306 61.9006C8.68568 61.9947 8.80656 62.1284 8.87793 62.2849C8.94931 62.4413 8.96798 62.6134 8.9316 62.7795C8.89521 62.9456 8.80539 63.0982 8.67351 63.2179C8.54162 63.3376 8.37358 63.4192 8.19065 63.4522C8.00772 63.4852 7.8181 63.4683 7.64579 63.4035C7.47347 63.3387 7.32618 63.2289 7.22256 63.0882C7.11894 62.9474 7.06363 62.7818 7.06363 62.6125C7.06363 62.3854 7.16299 62.1677 7.33984 62.0071C7.5167 61.8465 7.75656 61.7563 8.00667 61.7563Z" fill="#D6D6E3"/>
<path d="M28.0074 27.718C27.6392 27.1651 27.2029 26.5748 26.5196 26.3943C25.7283 26.1852 24.9154 26.6005 24.2259 27.0103C22.1639 28.2361 20.1782 29.5645 18.2779 30.9894L18.28 31.0109L22.7185 30.733C23.7874 30.6661 24.8931 30.5899 25.8377 30.1309C26.1963 29.9571 26.5456 29.724 26.9518 29.7078C27.4565 29.6876 27.8964 30.0076 28.2423 30.3419C30.2878 32.3195 30.8799 35.3435 33.1747 37.081C31.7276 33.841 29.9998 30.7103 28.0074 27.7184V27.718Z" fill="#9A0000"/>
<path d="M40.581 44.4911C40.3548 44.2317 40.2619 44.171 40.0392 43.9093C38.2224 41.7761 36.5147 39.5707 34.9162 37.2934C33.8305 35.7467 32.7986 34.1702 31.8205 32.5641C31.3549 31.8006 30.902 31.031 30.4618 30.2554C30.1203 29.6541 29.7863 29.049 29.46 28.4402C29.3668 28.2664 29.276 28.0917 29.1859 27.9168C28.9731 27.5053 28.7647 27.0917 28.5406 26.6857C28.3091 26.1984 27.9546 25.7672 27.5059 25.4271C27.2926 25.2798 27.0375 25.1907 26.7704 25.1702C26.3943 25.1721 26.026 25.2679 25.7058 25.4471C23.2819 26.6041 21.0194 28.0207 18.9668 29.6665C16.9111 31.3056 15.0736 33.1574 13.4918 35.1842C13.4434 35.2469 13.329 35.187 13.3778 35.1238C13.5701 34.8769 13.7663 34.6326 13.9662 34.3911C16.4526 31.389 19.5012 28.8074 22.9727 26.7642C23.5568 26.4206 24.1519 26.0931 24.7579 25.7817C25.0634 25.6247 25.3701 25.4696 25.6821 25.3242C25.9811 25.165 26.3165 25.0707 26.6623 25.0485C27.8515 25.0317 28.4672 26.2544 28.8902 27.0771C29.0231 27.336 29.1576 27.5941 29.2938 27.8515C29.8083 28.8284 30.3425 29.7964 30.8964 30.7555C31.2383 31.3477 31.5878 31.9364 31.9447 32.5216C33.0555 34.344 34.2361 36.1295 35.4863 37.8781C37.1429 40.1944 38.7862 42.2406 40.6735 44.4066C40.7263 44.4663 40.6334 44.5518 40.581 44.4911Z" fill="#9A0000"/>
<path d="M18.8494 29.0628C18.7803 28.9929 18.7111 28.923 18.6421 28.853C18.0938 28.3026 17.5053 27.7582 16.7523 27.4425C16.3932 27.2874 16.0013 27.205 15.6037 27.2011C15.1933 27.2114 14.7888 27.2915 14.411 27.4373C14.2315 27.5024 14.0558 27.5763 13.8829 27.655C13.6853 27.7453 13.4912 27.8417 13.2979 27.9387C12.9352 28.1209 12.5772 28.3111 12.2237 28.5093C11.5209 28.9036 10.84 29.3281 10.1811 29.7826C9.83956 30.0183 9.50507 30.2618 9.17764 30.5131C8.87276 30.7464 8.57436 30.986 8.28246 31.2319C8.21992 31.2842 8.12665 31.1996 8.18918 31.1472C8.26618 31.0821 8.34414 31.0174 8.42199 30.9534C8.64179 30.7728 8.86539 30.5958 9.09277 30.4224C9.50691 30.1051 9.93176 29.8001 10.3673 29.5074C11.0447 29.052 11.7453 28.6273 12.4693 28.2336C12.8309 28.037 13.1977 27.8487 13.5697 27.6686C13.6819 27.6143 13.7954 27.5612 13.91 27.5108C14.1706 27.3914 14.4414 27.2913 14.7198 27.2115C15.1141 27.0956 15.5313 27.0584 15.9428 27.1024C16.3402 27.1548 16.7231 27.2751 17.0713 27.4567C17.8106 27.8319 18.3841 28.412 18.9421 28.9782C18.9991 29.0352 18.9062 29.1203 18.8494 29.0628Z" fill="#9A0000"/>
<path d="M33.9993 34.7685L35.771 34.1802L36.6507 33.8881C36.9349 33.7842 37.2248 33.6936 37.5192 33.6165C37.7765 33.5498 38.0498 33.5529 38.3052 33.6256C38.533 33.7021 38.7415 33.8195 38.9184 33.9707C39.099 34.1217 39.2671 34.2847 39.4212 34.4583C39.6126 34.6672 39.8014 34.8784 39.9909 35.0888C40.7732 35.9573 41.5504 36.8295 42.3224 37.7054C43.0945 38.5813 43.8614 39.4613 44.623 40.3453C45.3865 41.231 46.1449 42.1204 46.8979 43.0134C46.9901 43.1229 47.0823 43.2323 47.1744 43.3417C47.2253 43.4023 47.34 43.3426 47.2884 43.2812C46.5298 42.3791 45.7659 41.4807 44.9967 40.586C44.2257 39.6892 43.4493 38.7962 42.6676 37.907C41.8859 37.0178 41.0988 36.1325 40.3065 35.251C40.1091 35.0314 39.9114 34.812 39.7134 34.5929C39.5463 34.4081 39.3811 34.2212 39.198 34.0492C39.042 33.8785 38.8504 33.7375 38.6343 33.6341C38.4182 33.5307 38.1818 33.4671 37.9385 33.4468C37.6439 33.4561 37.3536 33.5141 37.0818 33.6178C36.7856 33.715 36.4902 33.8142 36.1943 33.9124L34.4101 34.5048L33.9641 34.6529C33.8849 34.6792 33.9191 34.7952 33.9992 34.7688L33.9993 34.7685Z" fill="#9A0000"/>
<path d="M16.5192 28.1355C16.0639 27.9319 15.5571 27.8419 15.0509 27.8748C14.5446 27.9076 14.0571 28.0622 13.6384 28.3226C15.2165 28.5697 16.7774 28.9005 18.313 29.3131C17.6748 28.9738 17.1766 28.4423 16.5192 28.1355Z" fill="#9A0000"/>
<path d="M38.8517 34.7744C38.6966 34.5667 38.4805 34.4028 38.2278 34.3013L37.9843 34.31C39.8382 37.2843 42.3422 39.8833 45.3425 41.9474L38.8517 34.7744Z" fill="#9A0000"/>
<path d="M37.7123 31.5179C38.4869 31.5179 39.1149 30.9478 39.1149 30.2446C39.1149 29.5413 38.4869 28.9712 37.7123 28.9712C36.9377 28.9712 36.3097 29.5413 36.3097 30.2446C36.3097 30.9478 36.9377 31.5179 37.7123 31.5179Z" fill="#9A0000"/>
</g>
<defs>
<clipPath id="clip0_237_2">
<rect width="70.5201" height="69.6" fill="white" transform="translate(53.4799 1)"/>
</clipPath>
<clipPath id="clip1_237_2">
<rect width="55.4758" height="69.6" fill="white"/>
</clipPath>
</defs>
</svg>
