<svg width="1353" height="292" viewBox="0 0 1353 292" fill="none" xmlns="http://www.w3.org/2000/svg">
<path d="M58 187.387V18.9823H100.653L202.632 127.238L300.111 18.9823H345.296V187.387L300.111 241.356V104.226L227.229 179.161H180.003L100.653 104.226V241.356L58 187.387Z" fill="url(#paint0_linear_134_6)"/>
<path d="M283.311 204.068V273.018H239.339L201.648 233.618L163.958 273.018H119.985V204.068L151.394 179.216L151.394 242.811L189.085 204.068H214.212L251.902 242.811L251.902 179.216L283.311 204.068Z" fill="url(#paint1_linear_134_6)"/>
<path d="M396.256 164.93V80.93H412.336L448.096 140.21H439.576L474.736 80.93H490.696L490.936 164.93H472.696L472.576 108.89H475.936L447.856 156.05H439.096L410.416 108.89H414.496V164.93H396.256ZM510.866 164.93V80.93H530.306V164.93H510.866ZM550.241 164.93V80.93H588.401C597.521 80.93 605.561 82.69 612.521 86.21C619.481 89.65 624.921 94.49 628.841 100.73C632.761 106.97 634.721 114.37 634.721 122.93C634.721 131.41 632.761 138.81 628.841 145.13C624.921 151.37 619.481 156.25 612.521 159.77C605.561 163.21 597.521 164.93 588.401 164.93H550.241ZM569.681 148.97H587.441C593.041 148.97 597.881 147.93 601.961 145.85C606.121 143.69 609.321 140.65 611.561 136.73C613.881 132.81 615.041 128.21 615.041 122.93C615.041 117.57 613.881 112.97 611.561 109.13C609.321 105.21 606.121 102.21 601.961 100.13C597.881 97.97 593.041 96.89 587.441 96.89H569.681V148.97ZM689.941 166.37C683.301 166.37 677.181 165.33 671.581 163.25C666.061 161.09 661.221 158.05 657.061 154.13C652.981 150.21 649.781 145.61 647.461 140.33C645.221 135.05 644.101 129.25 644.101 122.93C644.101 116.61 645.221 110.81 647.461 105.53C649.781 100.25 653.021 95.65 657.181 91.73C661.341 87.81 666.221 84.81 671.821 82.73C677.421 80.57 683.581 79.49 690.301 79.49C697.741 79.49 704.421 80.73 710.341 83.21C716.341 85.69 721.381 89.29 725.461 94.01L712.981 105.53C709.941 102.33 706.621 99.97 703.021 98.45C699.421 96.85 695.501 96.05 691.261 96.05C687.181 96.05 683.461 96.69 680.101 97.97C676.741 99.25 673.821 101.09 671.341 103.49C668.941 105.89 667.061 108.73 665.701 112.01C664.421 115.29 663.781 118.93 663.781 122.93C663.781 126.85 664.421 130.45 665.701 133.73C667.061 137.01 668.941 139.89 671.341 142.37C673.821 144.77 676.701 146.61 679.981 147.89C683.341 149.17 687.021 149.81 691.021 149.81C694.861 149.81 698.581 149.21 702.181 148.01C705.861 146.73 709.421 144.61 712.861 141.65L723.901 155.69C719.341 159.13 714.021 161.77 707.941 163.61C701.941 165.45 695.941 166.37 689.941 166.37ZM706.141 153.17V121.61H723.901V155.69L706.141 153.17ZM730.919 164.93L768.359 80.93H787.559L825.119 164.93H804.719L773.999 90.77H781.679L750.839 164.93H730.919ZM749.639 146.93L754.799 132.17H797.999L803.279 146.93H749.639ZM833.834 164.93V80.93H870.194C877.714 80.93 884.194 82.17 889.634 84.65C895.074 87.05 899.274 90.53 902.234 95.09C905.194 99.65 906.674 105.09 906.674 111.41C906.674 117.65 905.194 123.05 902.234 127.61C899.274 132.09 895.074 135.53 889.634 137.93C884.194 140.33 877.714 141.53 870.194 141.53H844.634L853.274 133.01V164.93H833.834ZM887.234 164.93L866.234 134.45H886.994L908.234 164.93H887.234ZM853.274 135.17L844.634 126.05H869.114C875.114 126.05 879.594 124.77 882.554 122.21C885.514 119.57 886.994 115.97 886.994 111.41C886.994 106.77 885.514 103.17 882.554 100.61C879.594 98.05 875.114 96.77 869.114 96.77H844.634L853.274 87.53V135.17ZM922.077 164.93V80.93H960.237C969.357 80.93 977.397 82.69 984.357 86.21C991.317 89.65 996.757 94.49 1000.68 100.73C1004.6 106.97 1006.56 114.37 1006.56 122.93C1006.56 131.41 1004.6 138.81 1000.68 145.13C996.757 151.37 991.317 156.25 984.357 159.77C977.397 163.21 969.357 164.93 960.237 164.93H922.077ZM941.517 148.97H959.277C964.877 148.97 969.717 147.93 973.797 145.85C977.957 143.69 981.157 140.65 983.397 136.73C985.717 132.81 986.877 128.21 986.877 122.93C986.877 117.57 985.717 112.97 983.397 109.13C981.157 105.21 977.957 102.21 973.797 100.13C969.717 97.97 964.877 96.89 959.277 96.89H941.517V148.97ZM1038.68 164.93L1011.2 80.93H1031.36L1055.24 155.33H1045.16L1070.12 80.93H1088.12L1112.12 155.33H1102.4L1126.88 80.93H1145.48L1118 164.93H1097.12L1075.88 99.65H1081.4L1059.56 164.93H1038.68ZM1174.21 114.77H1214.65V129.89H1174.21V114.77ZM1175.65 149.33H1221.37V164.93H1156.33V80.93H1219.81V96.53H1175.65V149.33ZM1236.84 164.93V80.93H1277.88C1288.44 80.93 1296.36 82.93 1301.64 86.93C1307 90.93 1309.68 96.21 1309.68 102.77C1309.68 107.17 1308.6 111.01 1306.44 114.29C1304.28 117.49 1301.32 119.97 1297.56 121.73C1293.8 123.49 1289.48 124.37 1284.6 124.37L1286.88 119.45C1292.16 119.45 1296.84 120.33 1300.92 122.09C1305 123.77 1308.16 126.29 1310.4 129.65C1312.72 133.01 1313.88 137.13 1313.88 142.01C1313.88 149.21 1311.04 154.85 1305.36 158.93C1299.68 162.93 1291.32 164.93 1280.28 164.93H1236.84ZM1256.16 150.29H1278.84C1283.88 150.29 1287.68 149.49 1290.24 147.89C1292.88 146.21 1294.2 143.57 1294.2 139.97C1294.2 136.45 1292.88 133.85 1290.24 132.17C1287.68 130.41 1283.88 129.53 1278.84 129.53H1254.72V115.37H1275.48C1280.2 115.37 1283.8 114.57 1286.28 112.97C1288.84 111.29 1290.12 108.77 1290.12 105.41C1290.12 102.13 1288.84 99.69 1286.28 98.09C1283.8 96.41 1280.2 95.57 1275.48 95.57H1256.16V150.29Z" fill="url(#paint2_linear_134_6)"/>
<path d="M428.012 245.37V200.57H438.38V236.922H460.844V245.37H428.012ZM460.999 245.37L480.967 200.57H491.207L511.239 245.37H500.359L483.975 205.818H488.071L471.623 245.37H460.999ZM470.983 235.77L473.735 227.898H496.775L499.591 235.77H470.983ZM515.887 245.37V200.57H524.463L550.895 232.826H546.735V200.57H556.975V245.37H548.463L521.967 213.114H526.127V245.37H515.887ZM567.575 245.37V200.57H587.927C592.791 200.57 597.079 201.509 600.791 203.386C604.503 205.221 607.404 207.802 609.495 211.13C611.585 214.458 612.631 218.405 612.631 222.97C612.631 227.493 611.585 231.44 609.495 234.81C607.404 238.138 604.503 240.741 600.791 242.618C597.079 244.453 592.791 245.37 587.927 245.37H567.575ZM577.943 236.858H587.415C590.401 236.858 592.983 236.304 595.159 235.194C597.377 234.042 599.084 232.421 600.279 230.33C601.516 228.24 602.135 225.786 602.135 222.97C602.135 220.112 601.516 217.658 600.279 215.61C599.084 213.52 597.377 211.92 595.159 210.81C592.983 209.658 590.401 209.082 587.415 209.082H577.943V236.858ZM620.45 245.37V200.57H630.818V245.37H620.45ZM641.45 245.37V200.57H650.026L676.458 232.826H672.298V200.57H682.538V245.37H674.026L647.53 213.114H651.69V245.37H641.45ZM714.769 246.138C711.228 246.138 707.964 245.584 704.977 244.474C702.033 243.322 699.452 241.701 697.233 239.61C695.057 237.52 693.351 235.066 692.113 232.25C690.919 229.434 690.321 226.341 690.321 222.97C690.321 219.6 690.919 216.506 692.113 213.69C693.351 210.874 695.079 208.421 697.297 206.33C699.516 204.24 702.119 202.64 705.105 201.53C708.092 200.378 711.377 199.802 714.961 199.802C718.929 199.802 722.492 200.464 725.649 201.786C728.849 203.109 731.537 205.029 733.713 207.546L727.057 213.69C725.436 211.984 723.665 210.725 721.745 209.914C719.825 209.061 717.735 208.634 715.473 208.634C713.297 208.634 711.313 208.976 709.521 209.658C707.729 210.341 706.172 211.322 704.849 212.602C703.569 213.882 702.567 215.397 701.841 217.146C701.159 218.896 700.817 220.837 700.817 222.97C700.817 225.061 701.159 226.981 701.841 228.73C702.567 230.48 703.569 232.016 704.849 233.338C706.172 234.618 707.708 235.6 709.457 236.282C711.249 236.965 713.212 237.306 715.345 237.306C717.393 237.306 719.377 236.986 721.297 236.346C723.26 235.664 725.159 234.533 726.993 232.954L732.881 240.442C730.449 242.277 727.612 243.685 724.369 244.666C721.169 245.648 717.969 246.138 714.769 246.138ZM723.409 239.098V222.266H732.881V240.442L723.409 239.098ZM760.637 245.37V200.57H780.029C784.04 200.57 787.496 201.232 790.397 202.554C793.299 203.834 795.539 205.69 797.117 208.122C798.696 210.554 799.485 213.456 799.485 216.826C799.485 220.154 798.696 223.034 797.117 225.466C795.539 227.898 793.299 229.776 790.397 231.098C787.496 232.378 784.04 233.018 780.029 233.018H766.397L771.005 228.346V245.37H760.637ZM771.005 229.498L766.397 224.57H779.453C782.653 224.57 785.043 223.888 786.621 222.522C788.2 221.157 788.989 219.258 788.989 216.826C788.989 214.352 788.2 212.432 786.621 211.066C785.043 209.701 782.653 209.018 779.453 209.018H766.397L771.005 204.09V229.498ZM798.749 245.37L818.717 200.57H828.957L848.989 245.37H838.109L821.725 205.818H825.821L809.373 245.37H798.749ZM808.733 235.77L811.485 227.898H834.525L837.341 235.77H808.733ZM874.644 246.138C871.103 246.138 867.839 245.584 864.852 244.474C861.908 243.322 859.327 241.701 857.108 239.61C854.932 237.52 853.226 235.066 851.988 232.25C850.794 229.434 850.196 226.341 850.196 222.97C850.196 219.6 850.794 216.506 851.988 213.69C853.226 210.874 854.954 208.421 857.172 206.33C859.391 204.24 861.994 202.64 864.98 201.53C867.967 200.378 871.252 199.802 874.836 199.802C878.804 199.802 882.367 200.464 885.524 201.786C888.724 203.109 891.412 205.029 893.588 207.546L886.932 213.69C885.311 211.984 883.54 210.725 881.62 209.914C879.7 209.061 877.61 208.634 875.348 208.634C873.172 208.634 871.188 208.976 869.396 209.658C867.604 210.341 866.047 211.322 864.724 212.602C863.444 213.882 862.442 215.397 861.716 217.146C861.034 218.896 860.692 220.837 860.692 222.97C860.692 225.061 861.034 226.981 861.716 228.73C862.442 230.48 863.444 232.016 864.724 233.338C866.047 234.618 867.583 235.6 869.332 236.282C871.124 236.965 873.087 237.306 875.22 237.306C877.268 237.306 879.252 236.986 881.172 236.346C883.135 235.664 885.034 234.533 886.868 232.954L892.756 240.442C890.324 242.277 887.487 243.685 884.244 244.666C881.044 245.648 877.844 246.138 874.644 246.138ZM883.284 239.098V222.266H892.756V240.442L883.284 239.098ZM911.923 218.618H933.491V226.682H911.923V218.618ZM912.691 237.05H937.075V245.37H902.387V200.57H936.243V208.89H912.691V237.05ZM963.45 245.37V200.57H983.802C988.666 200.57 992.954 201.509 996.666 203.386C1000.38 205.221 1003.28 207.802 1005.37 211.13C1007.46 214.458 1008.51 218.405 1008.51 222.97C1008.51 227.493 1007.46 231.44 1005.37 234.81C1003.28 238.138 1000.38 240.741 996.666 242.618C992.954 244.453 988.666 245.37 983.802 245.37H963.45ZM973.818 236.858H983.29C986.276 236.858 988.858 236.304 991.034 235.194C993.252 234.042 994.959 232.421 996.154 230.33C997.391 228.24 998.01 225.786 998.01 222.97C998.01 220.112 997.391 217.658 996.154 215.61C994.959 213.52 993.252 211.92 991.034 210.81C988.858 209.658 986.276 209.082 983.29 209.082H973.818V236.858ZM1025.86 218.618H1047.43V226.682H1025.86V218.618ZM1026.63 237.05H1051.01V245.37H1016.32V200.57H1050.18V208.89H1026.63V237.05ZM1073.98 246.138C1070.4 246.138 1066.96 245.669 1063.68 244.73C1060.39 243.749 1057.75 242.49 1055.74 240.954L1059.26 233.146C1061.18 234.512 1063.44 235.642 1066.05 236.538C1068.69 237.392 1071.36 237.818 1074.05 237.818C1076.09 237.818 1077.74 237.626 1078.97 237.242C1080.25 236.816 1081.19 236.24 1081.79 235.514C1082.39 234.789 1082.69 233.957 1082.69 233.018C1082.69 231.824 1082.22 230.885 1081.28 230.202C1080.34 229.477 1079.1 228.901 1077.57 228.474C1076.03 228.005 1074.32 227.578 1072.45 227.194C1070.61 226.768 1068.76 226.256 1066.88 225.658C1065.04 225.061 1063.36 224.293 1061.82 223.354C1060.29 222.416 1059.03 221.178 1058.05 219.642C1057.11 218.106 1056.64 216.144 1056.64 213.754C1056.64 211.194 1057.32 208.869 1058.69 206.778C1060.09 204.645 1062.18 202.96 1064.96 201.722C1067.77 200.442 1071.29 199.802 1075.52 199.802C1078.33 199.802 1081.11 200.144 1083.84 200.826C1086.57 201.466 1088.98 202.448 1091.07 203.77L1087.87 211.642C1085.78 210.448 1083.69 209.573 1081.6 209.018C1079.51 208.421 1077.46 208.122 1075.45 208.122C1073.45 208.122 1071.81 208.357 1070.53 208.826C1069.25 209.296 1068.33 209.914 1067.77 210.682C1067.22 211.408 1066.94 212.261 1066.94 213.242C1066.94 214.394 1067.41 215.333 1068.35 216.058C1069.29 216.741 1070.53 217.296 1072.06 217.722C1073.6 218.149 1075.28 218.576 1077.12 219.002C1079 219.429 1080.85 219.92 1082.69 220.474C1084.56 221.029 1086.27 221.776 1087.81 222.714C1089.34 223.653 1090.58 224.89 1091.52 226.426C1092.5 227.962 1092.99 229.904 1092.99 232.25C1092.99 234.768 1092.29 237.072 1090.88 239.162C1089.47 241.253 1087.36 242.938 1084.54 244.218C1081.77 245.498 1078.25 246.138 1073.98 246.138ZM1100.07 245.37V200.57H1110.44V245.37H1100.07ZM1142.71 246.138C1139.17 246.138 1135.9 245.584 1132.91 244.474C1129.97 243.322 1127.39 241.701 1125.17 239.61C1122.99 237.52 1121.29 235.066 1120.05 232.25C1118.86 229.434 1118.26 226.341 1118.26 222.97C1118.26 219.6 1118.86 216.506 1120.05 213.69C1121.29 210.874 1123.02 208.421 1125.23 206.33C1127.45 204.24 1130.06 202.64 1133.04 201.53C1136.03 200.378 1139.31 199.802 1142.9 199.802C1146.87 199.802 1150.43 200.464 1153.59 201.786C1156.79 203.109 1159.47 205.029 1161.65 207.546L1154.99 213.69C1153.37 211.984 1151.6 210.725 1149.68 209.914C1147.76 209.061 1145.67 208.634 1143.41 208.634C1141.23 208.634 1139.25 208.976 1137.46 209.658C1135.67 210.341 1134.11 211.322 1132.79 212.602C1131.51 213.882 1130.5 215.397 1129.78 217.146C1129.1 218.896 1128.75 220.837 1128.75 222.97C1128.75 225.061 1129.1 226.981 1129.78 228.73C1130.5 230.48 1131.51 232.016 1132.79 233.338C1134.11 234.618 1135.65 235.6 1137.39 236.282C1139.19 236.965 1141.15 237.306 1143.28 237.306C1145.33 237.306 1147.31 236.986 1149.23 236.346C1151.2 235.664 1153.1 234.533 1154.93 232.954L1160.82 240.442C1158.39 242.277 1155.55 243.685 1152.31 244.666C1149.11 245.648 1145.91 246.138 1142.71 246.138ZM1151.35 239.098V222.266H1160.82V240.442L1151.35 239.098ZM1170.45 245.37V200.57H1179.03L1205.46 232.826H1201.3V200.57H1211.54V245.37H1203.03L1176.53 213.114H1180.69V245.37H1170.45Z" fill="url(#paint3_linear_134_6)"/>
<defs>
<linearGradient id="paint0_linear_134_6" x1="38.3222" y1="18.9823" x2="32450.3" y2="18.9823" gradientUnits="userSpaceOnUse">
<stop stop-color="#C31111"/>
<stop offset="1" stop-color="#B10F10"/>
</linearGradient>
<linearGradient id="paint1_linear_134_6" x1="283.311" y1="273.018" x2="-16049.3" y2="273.018" gradientUnits="userSpaceOnUse">
<stop stop-color="#C31111"/>
<stop offset="1" stop-color="#B10F10"/>
</linearGradient>
<linearGradient id="paint2_linear_134_6" x1="386.296" y1="104.803" x2="1321.63" y2="104.803" gradientUnits="userSpaceOnUse">
<stop stop-color="#C31111"/>
<stop offset="1" stop-color="#E9E9E9"/>
</linearGradient>
<linearGradient id="paint3_linear_134_6" x1="422.7" y1="213.22" x2="1219.69" y2="213.22" gradientUnits="userSpaceOnUse">
<stop stop-color="#C31111"/>
<stop offset="1" stop-color="#E9E9E9"/>
</linearGradient>
</defs>
</svg>
