<svg width="75" height="32" viewBox="0 0 75 32" fill="none" xmlns="http://www.w3.org/2000/svg">
<path d="M5 16C4.9997 14.0689 5.50775 12.1718 6.47308 10.4994C7.43841 8.82693 8.827 7.43806 10.4993 6.47241C12.1715 5.50675 14.0685 4.99833 15.9996 4.99826C17.9306 4.99818 19.8277 5.50645 21.5 6.47198C21.7296 6.6025 22.0014 6.63692 22.2563 6.56773C22.5111 6.49854 22.7282 6.33136 22.8603 6.10267C22.9923 5.87399 23.0285 5.60236 22.961 5.34706C22.8935 5.09176 22.7278 4.87353 22.5 4.73998C20.0217 3.30914 17.1406 2.73602 14.3034 3.1095C11.4662 3.48298 8.83148 4.78218 6.80791 6.80563C4.78434 8.82907 3.48496 11.4637 3.1113 14.3008C2.73764 17.138 3.31058 20.0192 4.74126 22.4976C6.17193 24.976 8.3804 26.913 11.0242 28.0083C13.6679 29.1037 16.5992 29.2961 19.3634 28.5557C22.1277 27.8153 24.5704 26.1835 26.3127 23.9134C28.055 21.6432 28.9996 18.8617 29 16C29 15.7348 28.8946 15.4804 28.7071 15.2929C28.5196 15.1053 28.2652 15 28 15C27.7348 15 27.4804 15.1053 27.2929 15.2929C27.1054 15.4804 27 15.7348 27 16C27 18.9174 25.8411 21.7153 23.7782 23.7782C21.7153 25.8411 18.9174 27 16 27C13.0826 27 10.2847 25.8411 8.22183 23.7782C6.15893 21.7153 5 18.9174 5 16Z" fill="#9D1818"/>
<path d="M30.708 6.70798C30.801 6.61501 30.8747 6.50463 30.925 6.38315C30.9754 6.26167 31.0013 6.13147 31.0013 5.99998C31.0013 5.86849 30.9754 5.73829 30.925 5.61681C30.8747 5.49534 30.801 5.38496 30.708 5.29198C30.615 5.19901 30.5046 5.12525 30.3832 5.07493C30.2617 5.02462 30.1315 4.99872 30 4.99872C29.8685 4.99872 29.7383 5.02462 29.6168 5.07493C29.4953 5.12525 29.385 5.19901 29.292 5.29198L16 18.586L10.708 13.292C10.615 13.199 10.5046 13.1253 10.3832 13.0749C10.2617 13.0246 10.1315 12.9987 10 12.9987C9.86851 12.9987 9.73831 13.0246 9.61683 13.0749C9.49535 13.1253 9.38497 13.199 9.292 13.292C9.19902 13.385 9.12527 13.4953 9.07495 13.6168C9.02463 13.7383 8.99873 13.8685 8.99873 14C8.99873 14.1315 9.02463 14.2617 9.07495 14.3831C9.12527 14.5046 9.19902 14.615 9.292 14.708L15.292 20.708C15.3849 20.8011 15.4952 20.875 15.6167 20.9254C15.7382 20.9758 15.8685 21.0018 16 21.0018C16.1315 21.0018 16.2618 20.9758 16.3833 20.9254C16.5048 20.875 16.6151 20.8011 16.708 20.708L30.708 6.70798Z" fill="#9D1818"/>
<path d="M43.0568 18V9.27273H46.0057C46.6875 9.27273 47.2472 9.3892 47.6847 9.62216C48.1222 9.85227 48.446 10.169 48.6562 10.5724C48.8665 10.9759 48.9716 11.4347 48.9716 11.9489C48.9716 12.4631 48.8665 12.919 48.6562 13.3168C48.446 13.7145 48.1236 14.027 47.6889 14.2543C47.2543 14.4787 46.6989 14.5909 46.0227 14.5909H43.6364V13.6364H45.9886C46.4545 13.6364 46.8295 13.5682 47.1136 13.4318C47.4006 13.2955 47.608 13.1023 47.7358 12.8523C47.8665 12.5994 47.9318 12.2983 47.9318 11.9489C47.9318 11.5994 47.8665 11.294 47.7358 11.0327C47.6051 10.7713 47.3963 10.5696 47.1094 10.4276C46.8224 10.2827 46.4432 10.2102 45.9716 10.2102H44.1136V18H43.0568ZM47.1648 14.0795L49.3125 18H48.0852L45.9716 14.0795H47.1648ZM53.2702 18.1364C52.6396 18.1364 52.0955 17.9972 51.6381 17.7188C51.1836 17.4375 50.8327 17.0455 50.5856 16.5426C50.3413 16.0369 50.2191 15.4489 50.2191 14.7784C50.2191 14.108 50.3413 13.517 50.5856 13.0057C50.8327 12.4915 51.1765 12.0909 51.6168 11.804C52.06 11.5142 52.5771 11.3693 53.168 11.3693C53.5089 11.3693 53.8455 11.4261 54.1779 11.5398C54.5103 11.6534 54.8129 11.8381 55.0856 12.0938C55.3583 12.3466 55.5756 12.6818 55.7376 13.0994C55.8995 13.517 55.9805 14.0312 55.9805 14.642V15.0682H50.935V14.1989H54.9577C54.9577 13.8295 54.8839 13.5 54.7362 13.2102C54.5913 12.9205 54.3839 12.6918 54.114 12.5241C53.8469 12.3565 53.5316 12.2727 53.168 12.2727C52.7674 12.2727 52.4208 12.3722 52.1282 12.571C51.8384 12.767 51.6154 13.0227 51.4592 13.3381C51.3029 13.6534 51.2248 13.9915 51.2248 14.3523V14.9318C51.2248 15.4261 51.31 15.8452 51.4805 16.1889C51.6538 16.5298 51.8938 16.7898 52.2006 16.9688C52.5075 17.1449 52.864 17.233 53.2702 17.233C53.5344 17.233 53.7731 17.196 53.9862 17.1222C54.2021 17.0455 54.3881 16.9318 54.5444 16.7812C54.7006 16.6278 54.8214 16.4375 54.9066 16.2102L55.8782 16.483C55.7759 16.8125 55.604 17.1023 55.3626 17.3523C55.1211 17.5994 54.8228 17.7926 54.4677 17.9318C54.1126 18.0682 53.7134 18.1364 53.2702 18.1364ZM59.4364 18.1534C59.0217 18.1534 58.6452 18.0753 58.3072 17.919C57.9691 17.7599 57.7006 17.5312 57.5018 17.233C57.3029 16.9318 57.2035 16.5682 57.2035 16.142C57.2035 15.767 57.2773 15.4631 57.4251 15.2301C57.5728 14.9943 57.7702 14.8097 58.0174 14.6761C58.2646 14.5426 58.5373 14.4432 58.8356 14.3778C59.1367 14.3097 59.4393 14.2557 59.7433 14.2159C60.141 14.1648 60.4634 14.1264 60.7106 14.1009C60.9606 14.0724 61.1424 14.0256 61.256 13.9602C61.3725 13.8949 61.4308 13.7812 61.4308 13.6193V13.5852C61.4308 13.1648 61.3157 12.8381 61.0856 12.6051C60.8583 12.3722 60.5131 12.2557 60.0501 12.2557C59.57 12.2557 59.1935 12.3608 58.9208 12.571C58.6481 12.7812 58.4563 13.0057 58.3455 13.2443L57.391 12.9034C57.5614 12.5057 57.7887 12.196 58.0728 11.9744C58.3597 11.75 58.6722 11.5937 59.0103 11.5057C59.3512 11.4148 59.6864 11.3693 60.016 11.3693C60.2262 11.3693 60.4677 11.3949 60.7404 11.446C61.016 11.4943 61.2816 11.5952 61.5373 11.7486C61.7958 11.902 62.0103 12.1335 62.1808 12.4432C62.3512 12.7528 62.4364 13.1676 62.4364 13.6875V18H61.4308V17.1136H61.3796C61.3114 17.2557 61.1978 17.4077 61.0387 17.5696C60.8796 17.7315 60.668 17.8693 60.4038 17.983C60.1396 18.0966 59.8171 18.1534 59.4364 18.1534ZM59.5898 17.25C59.9876 17.25 60.3228 17.1719 60.5955 17.0156C60.8711 16.8594 61.0785 16.6577 61.2177 16.4105C61.3597 16.1634 61.4308 15.9034 61.4308 15.6307V14.7102C61.3881 14.7614 61.2944 14.8082 61.1495 14.8509C61.0075 14.8906 60.8427 14.9261 60.6552 14.9574C60.4705 14.9858 60.2901 15.0114 60.114 15.0341C59.9407 15.054 59.8001 15.071 59.6921 15.0852C59.4308 15.1193 59.1864 15.1747 58.9592 15.2514C58.7347 15.3253 58.5529 15.4375 58.4137 15.5881C58.2773 15.7358 58.2092 15.9375 58.2092 16.1932C58.2092 16.5426 58.3384 16.8068 58.5969 16.9858C58.8583 17.1619 59.1893 17.25 59.5898 17.25ZM66.9311 18.1364C66.3175 18.1364 65.7891 17.9915 65.3459 17.7017C64.9027 17.4119 64.5618 17.0128 64.3232 16.5043C64.0845 15.9957 63.9652 15.4148 63.9652 14.7614C63.9652 14.0966 64.0874 13.5099 64.3317 13.0014C64.5788 12.4901 64.9226 12.0909 65.3629 11.804C65.8061 11.5142 66.3232 11.3693 66.9141 11.3693C67.3743 11.3693 67.7891 11.4545 68.1584 11.625C68.5277 11.7955 68.8303 12.0341 69.0661 12.3409C69.3018 12.6477 69.4482 13.0057 69.505 13.4148H68.4993C68.4226 13.1165 68.2521 12.8523 67.9879 12.6222C67.7266 12.3892 67.3743 12.2727 66.9311 12.2727C66.5391 12.2727 66.1953 12.375 65.8999 12.5795C65.6072 12.7812 65.3786 13.0668 65.2138 13.4361C65.0518 13.8026 64.9709 14.233 64.9709 14.7273C64.9709 15.233 65.0504 15.6733 65.2095 16.0483C65.3714 16.4233 65.5987 16.7145 65.8913 16.9219C66.1868 17.1293 66.5334 17.233 66.9311 17.233C67.1925 17.233 67.4297 17.1875 67.6428 17.0966C67.8558 17.0057 68.0362 16.875 68.1839 16.7045C68.3317 16.5341 68.4368 16.3295 68.4993 16.0909H69.505C69.4482 16.4773 69.3075 16.8253 69.0831 17.1349C68.8615 17.4418 68.5675 17.6861 68.201 17.8679C67.8374 18.0469 67.4141 18.1364 66.9311 18.1364ZM73.8217 11.4545V12.3068H70.4297V11.4545H73.8217ZM71.4183 9.88636H72.424V16.125C72.424 16.4091 72.4652 16.6222 72.5476 16.7642C72.6328 16.9034 72.7408 16.9972 72.8714 17.0455C73.005 17.0909 73.1456 17.1136 73.2933 17.1136C73.4041 17.1136 73.495 17.108 73.5661 17.0966C73.6371 17.0824 73.6939 17.071 73.7365 17.0625L73.9411 17.9659C73.8729 17.9915 73.7777 18.017 73.6555 18.0426C73.5334 18.071 73.3786 18.0852 73.1911 18.0852C72.907 18.0852 72.6286 18.0241 72.3558 17.902C72.0859 17.7798 71.8615 17.5938 71.6825 17.3438C71.5064 17.0938 71.4183 16.7784 71.4183 16.3977V9.88636Z" fill="white"/>
</svg>
