<svg width="19" height="18" viewBox="0 0 19 18" fill="none" xmlns="http://www.w3.org/2000/svg">
<g clip-path="url(#clip0_110_19884)">
<path d="M12.875 2.81261C12.875 2.15272 13.1069 1.51381 13.5303 1.00767C13.9537 0.501529 14.5416 0.160381 15.1911 0.0439134C15.8407 -0.0725538 16.5105 0.0430767 17.0834 0.370574C17.6562 0.698072 18.0957 1.21658 18.3249 1.83539C18.5541 2.45419 18.5585 3.13389 18.3371 3.75555C18.1158 4.37722 17.6829 4.90127 17.1143 5.23602C16.5456 5.57077 15.8773 5.6949 15.2264 5.58669C14.5754 5.47849 13.9832 5.14483 13.5534 4.64411L5.99566 8.15411C6.16934 8.70474 6.16934 9.29548 5.99566 9.84611L13.5534 13.3561C14.0077 12.8277 14.642 12.4868 15.3334 12.3995C16.0247 12.3121 16.7239 12.4845 17.2954 12.8833C17.8668 13.282 18.2699 13.8787 18.4265 14.5577C18.5831 15.2368 18.4821 15.9497 18.143 16.5585C17.8038 17.1673 17.2508 17.6285 16.591 17.8527C15.9312 18.0769 15.2117 18.0482 14.5719 17.7722C13.932 17.4962 13.4174 16.9924 13.1278 16.3586C12.8382 15.7248 12.7943 15.006 13.0044 14.3416L5.44666 10.8316C5.07253 11.2676 4.57383 11.5786 4.01767 11.7227C3.4615 11.8668 2.87454 11.8371 2.33574 11.6376C1.79695 11.4382 1.33217 11.0785 1.00393 10.6069C0.675695 10.1354 0.499741 9.57464 0.499741 9.00011C0.499741 8.42558 0.675695 7.86482 1.00393 7.39329C1.33217 6.92175 1.79695 6.56205 2.33574 6.36257C2.87454 6.16309 3.4615 6.13341 4.01767 6.27751C4.57383 6.42162 5.07253 6.73259 5.44666 7.16861L13.0044 3.65861C12.9184 3.38486 12.8748 3.09956 12.875 2.81261Z" fill="white"/>
</g>
<defs>
<clipPath id="clip0_110_19884">
<rect width="18" height="18" fill="white" transform="translate(0.5)"/>
</clipPath>
</defs>
</svg>
